<svg version="1.1" id="Layer_1" xmlns="http://www.w3.org/2000/svg" xmlns:xlink="http://www.w3.org/1999/xlink" x="0px" y="0px"
	 width="100%" viewBox="0 0 2560 1440" enable-background="new 0 0 2560 1440" xml:space="preserve">
<path fill="#FFFFFF" opacity="1.000000" stroke="none" 
	d="
M1331.304443,1440.601318 
	C1314.645752,1441.000000 1298.291504,1441.000000 1281.468628,1441.000000 
	C1279.664795,1439.537354 1279.486816,1437.716797 1279.419312,1435.865356 
	C1279.340576,1433.699829 1279.372437,1431.533325 1279.372437,1429.367188 
	C1279.371094,957.124695 1279.369629,484.882172 1279.400757,12.639659 
	C1279.401001,9.015556 1278.730591,5.286094 1280.696777,1.398179 
	C1297.354248,1.000000 1313.708496,1.000000 1330.531372,1.000000 
	C1332.335205,2.462651 1332.513062,4.283228 1332.580688,6.134716 
	C1332.659668,8.300163 1332.627686,10.466765 1332.627686,12.632874 
	C1332.629028,484.876495 1332.630371,957.120117 1332.599365,1429.363770 
	C1332.599121,1432.986328 1333.268188,1436.713867 1331.304443,1440.601318 
z"/>
<path fill="#FFFFFF" opacity="1.000000" stroke="none" 
	d="
M2480.697266,1.397955 
	C2497.354248,1.000000 2513.708252,1.000000 2530.531250,1.000000 
	C2532.334961,2.462652 2532.513428,4.283083 2532.581543,6.134582 
	C2532.661377,8.300011 2532.630615,10.466624 2532.630615,12.632728 
	C2532.634033,484.876434 2532.635742,957.120178 2532.602295,1429.363892 
	C2532.602051,1432.986328 2533.268799,1436.714233 2531.304199,1440.601318 
	C2514.645752,1441.000000 2498.291748,1441.000000 2481.468750,1441.000000 
	C2479.665039,1439.537476 2479.485352,1437.716919 2479.418701,1435.865356 
	C2479.335205,1433.533325 2479.369629,1431.200195 2479.369629,1428.867432 
	C2479.366211,956.791382 2479.364258,484.715332 2479.397461,12.639282 
	C2479.397705,9.015063 2478.729980,5.285216 2480.697266,1.397955 
z"/>
<path fill="#F5F5F5" opacity="1.000000" stroke="none" 
	d="
M1331.468628,1441.000000 
	C1331.000000,961.312439 1331.000000,481.624878 1331.000000,1.468657 
	C1347.354248,1.000000 1363.708496,1.000000 1380.531372,1.000000 
	C1382.335205,2.462651 1382.513184,4.283224 1382.580688,6.134716 
	C1382.659790,8.300159 1382.627686,10.466765 1382.627686,12.632874 
	C1382.629028,484.876495 1382.630371,957.120117 1382.599365,1429.363770 
	C1382.599121,1432.986328 1383.268188,1436.713867 1381.304443,1440.601318 
	C1364.645752,1441.000000 1348.291504,1441.000000 1331.468628,1441.000000 
z"/>
<path fill="#FFFFFF" opacity="1.000000" stroke="none" 
	d="
M1381.468628,1441.000000 
	C1381.000000,961.312439 1381.000000,481.624878 1381.000000,1.468657 
	C1397.354248,1.000000 1413.708496,1.000000 1430.531372,1.000000 
	C1432.335205,2.462651 1432.513062,4.283228 1432.580688,6.134716 
	C1432.659668,8.300163 1432.627686,10.466765 1432.627686,12.632874 
	C1432.629028,484.876495 1432.630371,957.120117 1432.599365,1429.363770 
	C1432.599121,1432.986328 1433.268188,1436.713867 1431.304443,1440.601318 
	C1414.645752,1441.000000 1398.291504,1441.000000 1381.468628,1441.000000 
z"/>
<path fill="#F5F5F5" opacity="1.000000" stroke="none" 
	d="
M1431.468628,1441.000000 
	C1431.000000,961.312439 1431.000000,481.624878 1431.000000,1.468657 
	C1447.354248,1.000000 1463.708496,1.000000 1480.531372,1.000000 
	C1482.335205,2.462651 1482.513184,4.283224 1482.580688,6.134716 
	C1482.659790,8.300159 1482.627686,10.466765 1482.627686,12.632874 
	C1482.629028,484.876495 1482.630371,957.120117 1482.599365,1429.363770 
	C1482.599121,1432.986328 1483.268188,1436.713867 1481.304443,1440.601318 
	C1464.645752,1441.000000 1448.291504,1441.000000 1431.468628,1441.000000 
z"/>
<path fill="#FFFFFF" opacity="1.000000" stroke="none" 
	d="
M1481.468628,1441.000000 
	C1481.000000,961.312439 1481.000000,481.624878 1481.000000,1.468657 
	C1497.354248,1.000000 1513.708496,1.000000 1530.531372,1.000000 
	C1532.335205,2.462651 1532.513062,4.283228 1532.580688,6.134716 
	C1532.659668,8.300163 1532.627686,10.466765 1532.627686,12.632874 
	C1532.629028,484.876495 1532.630371,957.120117 1532.599365,1429.363770 
	C1532.599121,1432.986328 1533.268188,1436.713867 1531.304443,1440.601318 
	C1514.645752,1441.000000 1498.291504,1441.000000 1481.468628,1441.000000 
z"/>
<path fill="#F5F5F5" opacity="1.000000" stroke="none" 
	d="
M1531.468628,1441.000000 
	C1531.000000,961.312439 1531.000000,481.624878 1531.000000,1.468657 
	C1547.354248,1.000000 1563.708496,1.000000 1580.531372,1.000000 
	C1582.335205,2.462651 1582.513184,4.283224 1582.580688,6.134716 
	C1582.659790,8.300159 1582.627686,10.466765 1582.627686,12.632874 
	C1582.629028,484.876495 1582.630371,957.120117 1582.599365,1429.363770 
	C1582.599121,1432.986328 1583.268188,1436.713867 1581.304443,1440.601318 
	C1564.645752,1441.000000 1548.291504,1441.000000 1531.468628,1441.000000 
z"/>
<path fill="#FFFFFF" opacity="1.000000" stroke="none" 
	d="
M1581.468628,1441.000000 
	C1581.000000,961.312439 1581.000000,481.624878 1581.000000,1.468657 
	C1597.354248,1.000000 1613.708496,1.000000 1630.531372,1.000000 
	C1632.335205,2.462651 1632.513062,4.283228 1632.580688,6.134716 
	C1632.659668,8.300163 1632.627686,10.466765 1632.627686,12.632874 
	C1632.629028,484.876495 1632.630371,957.120117 1632.599365,1429.363770 
	C1632.599121,1432.986328 1633.268188,1436.713867 1631.304443,1440.601318 
	C1614.645752,1441.000000 1598.291504,1441.000000 1581.468628,1441.000000 
z"/>
<path fill="#F5F5F5" opacity="1.000000" stroke="none" 
	d="
M1631.468628,1441.000000 
	C1631.000000,961.312439 1631.000000,481.624878 1631.000000,1.468657 
	C1647.354248,1.000000 1663.708496,1.000000 1680.531372,1.000000 
	C1682.335205,2.462651 1682.513184,4.283224 1682.580688,6.134716 
	C1682.659790,8.300159 1682.627686,10.466765 1682.627686,12.632874 
	C1682.629028,484.876495 1682.630371,957.120117 1682.599365,1429.363770 
	C1682.599121,1432.986328 1683.268188,1436.713867 1681.304443,1440.601318 
	C1664.645752,1441.000000 1648.291504,1441.000000 1631.468628,1441.000000 
z"/>
<path fill="#FFFFFF" opacity="1.000000" stroke="none" 
	d="
M1681.468628,1441.000000 
	C1681.000000,961.312439 1681.000000,481.624878 1681.000000,1.468657 
	C1697.354248,1.000000 1713.708496,1.000000 1730.531372,1.000000 
	C1732.335205,2.462651 1732.513184,4.283224 1732.580688,6.134716 
	C1732.659668,8.300163 1732.627686,10.466765 1732.627686,12.632874 
	C1732.629028,484.876495 1732.630371,957.120117 1732.599365,1429.363770 
	C1732.599121,1432.986328 1733.268188,1436.713867 1731.304443,1440.601318 
	C1714.645752,1441.000000 1698.291504,1441.000000 1681.468628,1441.000000 
z"/>
<path fill="#F5F5F5" opacity="1.000000" stroke="none" 
	d="
M1731.468628,1441.000000 
	C1731.000000,961.312439 1731.000000,481.624878 1731.000000,1.468657 
	C1747.354248,1.000000 1763.708496,1.000000 1780.531372,1.000000 
	C1782.335205,2.462651 1782.513184,4.283224 1782.580688,6.134716 
	C1782.659790,8.300159 1782.627686,10.466765 1782.627686,12.632874 
	C1782.629028,484.876495 1782.630371,957.120117 1782.599365,1429.363770 
	C1782.599121,1432.986328 1783.268188,1436.713867 1781.304443,1440.601318 
	C1764.645752,1441.000000 1748.291504,1441.000000 1731.468628,1441.000000 
z"/>
<path fill="#FFFFFF" opacity="1.000000" stroke="none" 
	d="
M1781.468628,1441.000000 
	C1781.000000,961.312439 1781.000000,481.624878 1781.000000,1.468657 
	C1797.354248,1.000000 1813.708496,1.000000 1830.531372,1.000000 
	C1832.335205,2.462651 1832.513184,4.283224 1832.580688,6.134716 
	C1832.659668,8.300163 1832.627563,10.466765 1832.627563,12.632874 
	C1832.628906,484.876495 1832.630371,957.120117 1832.599365,1429.363770 
	C1832.599121,1432.986328 1833.268188,1436.713867 1831.304443,1440.601318 
	C1814.645752,1441.000000 1798.291504,1441.000000 1781.468628,1441.000000 
z"/>
<path fill="#F5F5F5" opacity="1.000000" stroke="none" 
	d="
M1831.468628,1441.000000 
	C1831.000000,961.312439 1831.000000,481.624878 1831.000000,1.468657 
	C1847.354248,1.000000 1863.708496,1.000000 1880.531372,1.000000 
	C1882.335205,2.462651 1882.513184,4.283224 1882.580688,6.134716 
	C1882.659790,8.300159 1882.627563,10.466765 1882.627563,12.632874 
	C1882.628906,484.876495 1882.630371,957.120117 1882.599365,1429.363770 
	C1882.599121,1432.986328 1883.268188,1436.713867 1881.304443,1440.601318 
	C1864.645752,1441.000000 1848.291504,1441.000000 1831.468628,1441.000000 
z"/>
<path fill="#FFFFFF" opacity="1.000000" stroke="none" 
	d="
M1881.468628,1441.000000 
	C1881.000000,961.312439 1881.000000,481.624878 1881.000000,1.468657 
	C1897.354248,1.000000 1913.708496,1.000000 1930.531372,1.000000 
	C1932.335205,2.462651 1932.513184,4.283224 1932.580688,6.134716 
	C1932.659668,8.300163 1932.627563,10.466765 1932.627563,12.632874 
	C1932.628906,484.876495 1932.630371,957.120117 1932.599365,1429.363770 
	C1932.599121,1432.986328 1933.268188,1436.713867 1931.304443,1440.601318 
	C1914.645752,1441.000000 1898.291504,1441.000000 1881.468628,1441.000000 
z"/>
<path fill="#F5F5F5" opacity="1.000000" stroke="none" 
	d="
M1931.468628,1441.000000 
	C1931.000000,961.312439 1931.000000,481.624878 1931.000000,1.468657 
	C1947.354248,1.000000 1963.708496,1.000000 1980.531372,1.000000 
	C1982.335205,2.462651 1982.513184,4.283224 1982.580688,6.134716 
	C1982.659790,8.300159 1982.627563,10.466765 1982.627563,12.632874 
	C1982.628906,484.876495 1982.630371,957.120117 1982.599365,1429.363770 
	C1982.599121,1432.986328 1983.268188,1436.713867 1981.304443,1440.601318 
	C1964.645752,1441.000000 1948.291504,1441.000000 1931.468628,1441.000000 
z"/>
<path fill="#FFFFFF" opacity="1.000000" stroke="none" 
	d="
M1981.468628,1441.000000 
	C1981.000000,961.312439 1981.000000,481.624878 1981.000000,1.468657 
	C1997.354248,1.000000 2013.708496,1.000000 2030.531372,1.000000 
	C2032.335205,2.462651 2032.513184,4.283224 2032.580688,6.134716 
	C2032.659668,8.300163 2032.627563,10.466765 2032.627563,12.632874 
	C2032.628906,484.876495 2032.630371,957.120117 2032.599365,1429.363770 
	C2032.599121,1432.986328 2033.268188,1436.713867 2031.304443,1440.601318 
	C2014.645752,1441.000000 1998.291504,1441.000000 1981.468628,1441.000000 
z"/>
<path fill="#F5F5F5" opacity="1.000000" stroke="none" 
	d="
M2031.468628,1441.000000 
	C2031.000000,961.312439 2031.000000,481.624878 2031.000000,1.468657 
	C2047.354126,1.000000 2063.708252,1.000000 2080.531250,1.000000 
	C2082.334961,2.462652 2082.513184,4.283092 2082.581543,6.134582 
	C2082.661377,8.300011 2082.630615,10.466624 2082.630615,12.632728 
	C2082.634033,484.876434 2082.635742,957.120178 2082.602295,1429.363892 
	C2082.602051,1432.986328 2083.268799,1436.714233 2081.304199,1440.601318 
	C2064.645752,1441.000000 2048.291504,1441.000000 2031.468628,1441.000000 
z"/>
<path fill="#FFFFFF" opacity="1.000000" stroke="none" 
	d="
M2081.468750,1441.000000 
	C2081.000000,961.312439 2081.000000,481.624878 2081.000000,1.468657 
	C2097.354248,1.000000 2113.708252,1.000000 2130.531250,1.000000 
	C2132.334961,2.462652 2132.513428,4.283083 2132.581543,6.134582 
	C2132.661621,8.300001 2132.630615,10.466624 2132.630615,12.632728 
	C2132.634033,484.876434 2132.635742,957.120178 2132.602295,1429.363892 
	C2132.602051,1432.986328 2133.268799,1436.714233 2131.304199,1440.601318 
	C2114.645752,1441.000000 2098.291748,1441.000000 2081.468750,1441.000000 
z"/>
<path fill="#F5F5F5" opacity="1.000000" stroke="none" 
	d="
M2131.468750,1441.000000 
	C2131.000000,961.312439 2131.000000,481.624878 2131.000000,1.468657 
	C2147.354248,1.000000 2163.708252,1.000000 2180.531250,1.000000 
	C2182.334961,2.462652 2182.513428,4.283083 2182.581543,6.134582 
	C2182.661377,8.300011 2182.630615,10.466624 2182.630615,12.632728 
	C2182.634033,484.876434 2182.635742,957.120178 2182.602295,1429.363892 
	C2182.602051,1432.986328 2183.268799,1436.714233 2181.304199,1440.601318 
	C2164.645752,1441.000000 2148.291748,1441.000000 2131.468750,1441.000000 
z"/>
<path fill="#FFFFFF" opacity="1.000000" stroke="none" 
	d="
M2181.468750,1441.000000 
	C2181.000000,961.312439 2181.000000,481.624878 2181.000000,1.468657 
	C2197.354248,1.000000 2213.708252,1.000000 2230.531250,1.000000 
	C2232.334961,2.462652 2232.513428,4.283083 2232.581543,6.134582 
	C2232.661377,8.300011 2232.630615,10.466624 2232.630615,12.632728 
	C2232.634033,484.876434 2232.635742,957.120178 2232.602295,1429.363892 
	C2232.602051,1432.986328 2233.268799,1436.714233 2231.304199,1440.601318 
	C2214.645752,1441.000000 2198.291748,1441.000000 2181.468750,1441.000000 
z"/>
<path fill="#F5F5F5" opacity="1.000000" stroke="none" 
	d="
M2231.468750,1441.000000 
	C2231.000000,961.312439 2231.000000,481.624878 2231.000000,1.468657 
	C2247.354248,1.000000 2263.708252,1.000000 2280.531250,1.000000 
	C2282.334961,2.462652 2282.513428,4.283083 2282.581543,6.134582 
	C2282.661377,8.300011 2282.630615,10.466624 2282.630615,12.632728 
	C2282.634033,484.876434 2282.635742,957.120178 2282.602295,1429.363892 
	C2282.602051,1432.986328 2283.268799,1436.714233 2281.304199,1440.601318 
	C2264.645752,1441.000000 2248.291748,1441.000000 2231.468750,1441.000000 
z"/>
<path fill="#FFFFFF" opacity="1.000000" stroke="none" 
	d="
M2281.468750,1441.000000 
	C2281.000000,961.312439 2281.000000,481.624878 2281.000000,1.468657 
	C2297.354248,1.000000 2313.708252,1.000000 2330.531250,1.000000 
	C2332.334961,2.462652 2332.513428,4.283083 2332.581543,6.134582 
	C2332.661377,8.300011 2332.630615,10.466624 2332.630615,12.632728 
	C2332.634033,484.876434 2332.635742,957.120178 2332.602295,1429.363892 
	C2332.602051,1432.986328 2333.268799,1436.714233 2331.304199,1440.601318 
	C2314.645752,1441.000000 2298.291748,1441.000000 2281.468750,1441.000000 
z"/>
<path fill="#F5F5F5" opacity="1.000000" stroke="none" 
	d="
M2331.468750,1441.000000 
	C2331.000000,961.312439 2331.000000,481.624878 2331.000000,1.468657 
	C2347.354248,1.000000 2363.708252,1.000000 2380.531250,1.000000 
	C2382.334961,2.462652 2382.513184,4.283092 2382.581543,6.134582 
	C2382.661377,8.300011 2382.630615,10.466624 2382.630615,12.632728 
	C2382.634033,484.876434 2382.635742,957.120178 2382.602295,1429.363892 
	C2382.602051,1432.986328 2383.268799,1436.714233 2381.304199,1440.601318 
	C2364.645752,1441.000000 2348.291748,1441.000000 2331.468750,1441.000000 
z"/>
<path fill="#FFFFFF" opacity="1.000000" stroke="none" 
	d="
M2381.468750,1441.000000 
	C2381.000000,961.312439 2381.000000,481.624878 2381.000000,1.468657 
	C2397.354248,1.000000 2413.708252,1.000000 2430.531250,1.000000 
	C2432.334961,2.462652 2432.513184,4.283092 2432.581543,6.134582 
	C2432.661377,8.300011 2432.630615,10.466624 2432.630615,12.632728 
	C2432.634033,484.876434 2432.635742,957.120178 2432.602295,1429.363892 
	C2432.602051,1432.986328 2433.268799,1436.714233 2431.304199,1440.601318 
	C2414.645752,1441.000000 2398.291748,1441.000000 2381.468750,1441.000000 
z"/>
<path fill="#F5F5F5" opacity="1.000000" stroke="none" 
	d="
M2431.458008,1441.000000 
	C2431.000000,961.305298 2431.000000,481.610596 2431.000000,1.457953 
	C2447.361328,1.000000 2463.722656,1.000000 2480.541992,1.000000 
	C2481.000000,480.694702 2481.000000,960.389404 2481.000000,1440.541992 
	C2464.638672,1441.000000 2448.277344,1441.000000 2431.458008,1441.000000 
z"/>
<path fill="#FFFFFF" opacity="1.000000" stroke="none" 
	d="
M1231.304443,1440.601318 
	C1214.645752,1441.000000 1198.291504,1441.000000 1181.468628,1441.000000 
	C1179.664795,1439.537354 1179.486816,1437.716797 1179.419312,1435.865356 
	C1179.340576,1433.699829 1179.372437,1431.533325 1179.372437,1429.367188 
	C1179.371094,957.124695 1179.369629,484.882172 1179.400757,12.639659 
	C1179.401001,9.015556 1178.730591,5.286094 1180.696777,1.398179 
	C1197.354248,1.000000 1213.708496,1.000000 1230.531372,1.000000 
	C1232.335205,2.462651 1232.513062,4.283228 1232.580688,6.134716 
	C1232.659668,8.300163 1232.627686,10.466765 1232.627686,12.632874 
	C1232.629028,484.876495 1232.630371,957.120117 1232.599365,1429.363770 
	C1232.599121,1432.986328 1233.268188,1436.713867 1231.304443,1440.601318 
z"/>
<path fill="#F5F5F5" opacity="1.000000" stroke="none" 
	d="
M30.696938,1.398089 
	C47.354229,1.000000 63.708454,1.000000 80.531342,1.000000 
	C82.335243,2.462621 82.513054,4.283251 82.580841,6.134693 
	C82.660118,8.300132 82.628426,10.466739 82.628433,12.632848 
	C82.629875,484.876495 82.631302,957.120117 82.600136,1429.363770 
	C82.599899,1432.986328 83.268166,1436.713989 81.304344,1440.601318 
	C64.645775,1441.000000 48.291542,1441.000000 31.468658,1441.000000 
	C29.664740,1439.537354 29.486967,1437.716797 29.419180,1435.865356 
	C29.339897,1433.699829 29.371580,1431.533325 29.371574,1429.367188 
	C29.370245,957.124512 29.368664,484.881866 29.399944,12.639218 
	C29.400185,9.015206 28.730253,5.285689 30.696938,1.398089 
z"/>
<path fill="#FFFFFF" opacity="1.000000" stroke="none" 
	d="
M81.468658,1441.000000 
	C81.000000,961.312439 81.000000,481.624878 81.000000,1.468657 
	C97.354225,1.000000 113.708458,1.000000 130.531342,1.000000 
	C132.335251,2.462620 132.513031,4.283258 132.580826,6.134696 
	C132.660095,8.300134 132.628418,10.466742 132.628418,12.632851 
	C132.629761,484.876495 132.631378,957.120117 132.600143,1429.363770 
	C132.599915,1432.986328 133.268097,1436.713989 131.304352,1440.601318 
	C114.645775,1441.000000 98.291542,1441.000000 81.468658,1441.000000 
z"/>
<path fill="#F5F5F5" opacity="1.000000" stroke="none" 
	d="
M131.468658,1441.000000 
	C131.000000,961.312439 131.000000,481.624878 131.000000,1.468657 
	C147.354233,1.000000 163.708450,1.000000 180.531342,1.000000 
	C182.335251,2.462620 182.513046,4.283257 182.580826,6.134696 
	C182.660095,8.300134 182.628418,10.466742 182.628418,12.632851 
	C182.629761,484.876495 182.631378,957.120117 182.600143,1429.363770 
	C182.599915,1432.986328 183.268097,1436.713989 181.304352,1440.601318 
	C164.645767,1441.000000 148.291550,1441.000000 131.468658,1441.000000 
z"/>
<path fill="#FFFFFF" opacity="1.000000" stroke="none" 
	d="
M181.468658,1441.000000 
	C181.000000,961.312439 181.000000,481.624878 181.000000,1.468657 
	C197.354233,1.000000 213.708450,1.000000 230.531342,1.000000 
	C232.335251,2.462620 232.513016,4.283258 232.580811,6.134696 
	C232.660080,8.300135 232.628418,10.466742 232.628418,12.632851 
	C232.629761,484.876495 232.631378,957.120117 232.600143,1429.363770 
	C232.599915,1432.986328 233.268097,1436.713989 231.304352,1440.601318 
	C214.645767,1441.000000 198.291550,1441.000000 181.468658,1441.000000 
z"/>
<path fill="#F5F5F5" opacity="1.000000" stroke="none" 
	d="
M231.468658,1441.000000 
	C231.000000,961.312439 231.000000,481.624878 231.000000,1.468657 
	C247.354233,1.000000 263.708466,1.000000 280.531342,1.000000 
	C282.335205,2.462637 282.513031,4.283270 282.580841,6.134709 
	C282.660156,8.300146 282.628540,10.466756 282.628540,12.632864 
	C282.629822,484.876465 282.631409,957.120056 282.600189,1429.363647 
	C282.599945,1432.986206 283.268097,1436.713867 281.304382,1440.601318 
	C264.645782,1441.000000 248.291550,1441.000000 231.468658,1441.000000 
z"/>
<path fill="#FFFFFF" opacity="1.000000" stroke="none" 
	d="
M281.468658,1441.000000 
	C281.000000,961.312439 281.000000,481.624878 281.000000,1.468657 
	C297.354218,1.000000 313.708466,1.000000 330.531342,1.000000 
	C332.335205,2.462637 332.513031,4.283270 332.580841,6.134709 
	C332.660156,8.300146 332.628540,10.466756 332.628540,12.632864 
	C332.629822,484.876465 332.631409,957.120056 332.600189,1429.363647 
	C332.599945,1432.986206 333.268097,1436.713867 331.304382,1440.601318 
	C314.645782,1441.000000 298.291534,1441.000000 281.468658,1441.000000 
z"/>
<path fill="#F5F5F5" opacity="1.000000" stroke="none" 
	d="
M331.468658,1441.000000 
	C331.000000,961.312439 331.000000,481.624878 331.000000,1.468657 
	C347.354218,1.000000 363.708466,1.000000 380.531342,1.000000 
	C382.335205,2.462637 382.513000,4.283271 382.580841,6.134709 
	C382.660156,8.300146 382.628540,10.466756 382.628540,12.632864 
	C382.629822,484.876465 382.631409,957.120056 382.600189,1429.363647 
	C382.599945,1432.986206 383.268097,1436.713867 381.304382,1440.601318 
	C364.645782,1441.000000 348.291534,1441.000000 331.468658,1441.000000 
z"/>
<path fill="#FFFFFF" opacity="1.000000" stroke="none" 
	d="
M381.468658,1441.000000 
	C381.000000,961.312439 381.000000,481.624878 381.000000,1.468657 
	C397.354218,1.000000 413.708466,1.000000 430.531342,1.000000 
	C432.335205,2.462637 432.513000,4.283271 432.580841,6.134709 
	C432.660156,8.300146 432.628571,10.466756 432.628571,12.632864 
	C432.629852,484.876465 432.631409,957.120056 432.600189,1429.363647 
	C432.599945,1432.986206 433.268097,1436.713867 431.304382,1440.601318 
	C414.645782,1441.000000 398.291534,1441.000000 381.468658,1441.000000 
z"/>
<path fill="#F5F5F5" opacity="1.000000" stroke="none" 
	d="
M431.468658,1441.000000 
	C431.000000,961.312439 431.000000,481.624878 431.000000,1.468657 
	C447.354218,1.000000 463.708466,1.000000 480.531342,1.000000 
	C482.335205,2.462637 482.513000,4.283271 482.580841,6.134709 
	C482.660156,8.300146 482.628510,10.466756 482.628510,12.632864 
	C482.629791,484.876465 482.631470,957.120056 482.600250,1429.363647 
	C482.600006,1432.986206 483.268097,1436.713867 481.304382,1440.601318 
	C464.645782,1441.000000 448.291534,1441.000000 431.468658,1441.000000 
z"/>
<path fill="#FFFFFF" opacity="1.000000" stroke="none" 
	d="
M481.468658,1441.000000 
	C481.000000,961.312439 481.000000,481.624878 481.000000,1.468657 
	C497.354218,1.000000 513.708435,1.000000 530.531372,1.000000 
	C532.335205,2.462636 532.513000,4.283266 532.580811,6.134706 
	C532.660095,8.300148 532.628113,10.466755 532.628113,12.632863 
	C532.629272,484.876495 532.630981,957.120117 532.599792,1429.363770 
	C532.599548,1432.986328 533.268433,1436.713867 531.304321,1440.601318 
	C514.645752,1441.000000 498.291534,1441.000000 481.468658,1441.000000 
z"/>
<path fill="#F5F5F5" opacity="1.000000" stroke="none" 
	d="
M531.468628,1441.000000 
	C531.000000,961.312439 531.000000,481.624878 531.000000,1.468657 
	C547.354248,1.000000 563.708435,1.000000 580.531372,1.000000 
	C582.335205,2.462636 582.513062,4.283263 582.580811,6.134706 
	C582.660095,8.300148 582.628113,10.466755 582.628113,12.632863 
	C582.629272,484.876495 582.630981,957.120117 582.599792,1429.363770 
	C582.599548,1432.986328 583.268433,1436.713867 581.304321,1440.601318 
	C564.645752,1441.000000 548.291565,1441.000000 531.468628,1441.000000 
z"/>
<path fill="#FFFFFF" opacity="1.000000" stroke="none" 
	d="
M581.468628,1441.000000 
	C581.000000,961.312439 581.000000,481.624878 581.000000,1.468657 
	C597.354248,1.000000 613.708435,1.000000 630.531372,1.000000 
	C632.335205,2.462636 632.513000,4.283266 632.580811,6.134706 
	C632.660095,8.300148 632.628113,10.466755 632.628113,12.632863 
	C632.629272,484.876495 632.630981,957.120117 632.599792,1429.363770 
	C632.599548,1432.986328 633.268433,1436.713867 631.304321,1440.601318 
	C614.645752,1441.000000 598.291565,1441.000000 581.468628,1441.000000 
z"/>
<path fill="#F5F5F5" opacity="1.000000" stroke="none" 
	d="
M631.468628,1441.000000 
	C631.000000,961.312439 631.000000,481.624878 631.000000,1.468657 
	C647.354248,1.000000 663.708435,1.000000 680.531372,1.000000 
	C682.335205,2.462636 682.513000,4.283266 682.580811,6.134706 
	C682.660095,8.300148 682.628113,10.466755 682.628113,12.632863 
	C682.629272,484.876495 682.630981,957.120117 682.599792,1429.363770 
	C682.599548,1432.986328 683.268433,1436.713867 681.304321,1440.601318 
	C664.645752,1441.000000 648.291565,1441.000000 631.468628,1441.000000 
z"/>
<path fill="#FFFFFF" opacity="1.000000" stroke="none" 
	d="
M681.468628,1441.000000 
	C681.000000,961.312439 681.000000,481.624878 681.000000,1.468657 
	C697.354248,1.000000 713.708435,1.000000 730.531372,1.000000 
	C732.335205,2.462636 732.513062,4.283263 732.580811,6.134706 
	C732.660095,8.300148 732.628113,10.466755 732.628113,12.632863 
	C732.629272,484.876495 732.630981,957.120117 732.599792,1429.363770 
	C732.599548,1432.986328 733.268433,1436.713867 731.304321,1440.601318 
	C714.645752,1441.000000 698.291565,1441.000000 681.468628,1441.000000 
z"/>
<path fill="#F5F5F5" opacity="1.000000" stroke="none" 
	d="
M731.468628,1441.000000 
	C731.000000,961.312439 731.000000,481.624878 731.000000,1.468657 
	C747.354248,1.000000 763.708435,1.000000 780.531372,1.000000 
	C782.335205,2.462636 782.513000,4.283266 782.580811,6.134706 
	C782.660034,8.300150 782.628113,10.466755 782.628113,12.632863 
	C782.629272,484.876495 782.630981,957.120117 782.599792,1429.363770 
	C782.599548,1432.986328 783.268433,1436.713867 781.304321,1440.601318 
	C764.645752,1441.000000 748.291565,1441.000000 731.468628,1441.000000 
z"/>
<path fill="#FFFFFF" opacity="1.000000" stroke="none" 
	d="
M781.468628,1441.000000 
	C781.000000,961.312439 781.000000,481.624878 781.000000,1.468657 
	C797.354248,1.000000 813.708435,1.000000 830.531372,1.000000 
	C832.335205,2.462636 832.513000,4.283266 832.580811,6.134706 
	C832.660095,8.300148 832.628113,10.466755 832.628113,12.632863 
	C832.629272,484.876495 832.630981,957.120117 832.599792,1429.363770 
	C832.599548,1432.986328 833.268433,1436.713867 831.304321,1440.601318 
	C814.645752,1441.000000 798.291565,1441.000000 781.468628,1441.000000 
z"/>
<path fill="#F5F5F5" opacity="1.000000" stroke="none" 
	d="
M831.468628,1441.000000 
	C831.000000,961.312439 831.000000,481.624878 831.000000,1.468657 
	C847.354248,1.000000 863.708435,1.000000 880.531372,1.000000 
	C882.335205,2.462636 882.513000,4.283266 882.580811,6.134706 
	C882.660095,8.300148 882.628113,10.466755 882.628113,12.632863 
	C882.629272,484.876495 882.630981,957.120117 882.599792,1429.363770 
	C882.599548,1432.986328 883.268433,1436.713867 881.304321,1440.601318 
	C864.645752,1441.000000 848.291565,1441.000000 831.468628,1441.000000 
z"/>
<path fill="#FFFFFF" opacity="1.000000" stroke="none" 
	d="
M881.468628,1441.000000 
	C881.000000,961.312439 881.000000,481.624878 881.000000,1.468657 
	C897.354248,1.000000 913.708435,1.000000 930.531372,1.000000 
	C932.335205,2.462636 932.513123,4.283261 932.580933,6.134701 
	C932.660156,8.300145 932.628113,10.466755 932.628113,12.632863 
	C932.629272,484.876495 932.630859,957.120117 932.599670,1429.363770 
	C932.599426,1432.986328 933.268433,1436.713867 931.304321,1440.601318 
	C914.645752,1441.000000 898.291565,1441.000000 881.468628,1441.000000 
z"/>
<path fill="#F5F5F5" opacity="1.000000" stroke="none" 
	d="
M931.468628,1441.000000 
	C931.000000,961.312439 931.000000,481.624878 931.000000,1.468657 
	C947.354248,1.000000 963.708435,1.000000 980.531372,1.000000 
	C982.335205,2.462636 982.513123,4.283261 982.580933,6.134701 
	C982.660217,8.300143 982.628113,10.466755 982.628113,12.632863 
	C982.629272,484.876495 982.630859,957.120117 982.599670,1429.363770 
	C982.599426,1432.986328 983.268433,1436.713867 981.304321,1440.601318 
	C964.645752,1441.000000 948.291565,1441.000000 931.468628,1441.000000 
z"/>
<path fill="#FFFFFF" opacity="1.000000" stroke="none" 
	d="
M981.468628,1441.000000 
	C981.000000,961.312439 981.000000,481.624878 981.000000,1.468657 
	C997.354248,1.000000 1013.708496,1.000000 1030.531372,1.000000 
	C1032.335205,2.462651 1032.513062,4.283228 1032.580688,6.134716 
	C1032.659668,8.300163 1032.627686,10.466765 1032.627686,12.632874 
	C1032.629028,484.876495 1032.630371,957.120117 1032.599365,1429.363770 
	C1032.599121,1432.986328 1033.268188,1436.713867 1031.304443,1440.601318 
	C1014.645752,1441.000000 998.291565,1441.000000 981.468628,1441.000000 
z"/>
<path fill="#F5F5F5" opacity="1.000000" stroke="none" 
	d="
M1031.468628,1441.000000 
	C1031.000000,961.312439 1031.000000,481.624878 1031.000000,1.468657 
	C1047.354248,1.000000 1063.708496,1.000000 1080.531372,1.000000 
	C1082.335205,2.462651 1082.513184,4.283224 1082.580688,6.134716 
	C1082.659790,8.300159 1082.627686,10.466765 1082.627686,12.632874 
	C1082.629028,484.876495 1082.630371,957.120117 1082.599365,1429.363770 
	C1082.599121,1432.986328 1083.268188,1436.713867 1081.304443,1440.601318 
	C1064.645752,1441.000000 1048.291504,1441.000000 1031.468628,1441.000000 
z"/>
<path fill="#FFFFFF" opacity="1.000000" stroke="none" 
	d="
M1081.468628,1441.000000 
	C1081.000000,961.312439 1081.000000,481.624878 1081.000000,1.468657 
	C1097.354248,1.000000 1113.708496,1.000000 1130.531372,1.000000 
	C1132.335205,2.462651 1132.513062,4.283228 1132.580688,6.134716 
	C1132.659668,8.300163 1132.627686,10.466765 1132.627686,12.632874 
	C1132.629028,484.876495 1132.630371,957.120117 1132.599365,1429.363770 
	C1132.599121,1432.986328 1133.268188,1436.713867 1131.304443,1440.601318 
	C1114.645752,1441.000000 1098.291504,1441.000000 1081.468628,1441.000000 
z"/>
<path fill="#F5F5F5" opacity="1.000000" stroke="none" 
	d="
M1131.458008,1441.000000 
	C1131.000000,961.305298 1131.000000,481.610596 1131.000000,1.457953 
	C1147.361328,1.000000 1163.722778,1.000000 1180.541992,1.000000 
	C1181.000000,480.694702 1181.000000,960.389404 1181.000000,1440.541992 
	C1164.638672,1441.000000 1148.277222,1441.000000 1131.458008,1441.000000 
z"/>
<path fill="#F5F5F5" opacity="1.000000" stroke="none" 
	d="
M1231.458008,1441.000000 
	C1231.000000,961.305298 1231.000000,481.610596 1231.000000,1.457953 
	C1247.361328,1.000000 1263.722778,1.000000 1280.541992,1.000000 
	C1281.000000,480.694702 1281.000000,960.389404 1281.000000,1440.541992 
	C1264.638672,1441.000000 1248.277222,1441.000000 1231.458008,1441.000000 
z"/>
<path fill="#F5F5F5" opacity="1.000000" stroke="none" 
	d="
M2531.458008,1441.000000 
	C2531.000000,961.305298 2531.000000,481.610596 2531.000000,1.457953 
	C2540.164062,1.000000 2549.329834,1.086072 2558.491455,0.935915 
	C2560.624756,0.900950 2561.438232,1.321773 2561.024902,3.495706 
	C2560.872070,4.299751 2561.000000,5.157187 2561.000000,5.990289 
	C2561.000000,482.691315 2560.991211,959.392334 2561.129150,1436.093384 
	C2561.130371,1440.571289 2559.914307,1441.267944 2555.905273,1441.099243 
	C2547.921631,1440.763672 2539.913818,1441.000000 2531.458008,1441.000000 
z"/>
<path fill="#FFFFFF" opacity="1.000000" stroke="none" 
	d="
M30.542048,1.000000 
	C31.000000,480.694702 31.000000,960.389404 31.000000,1440.541992 
	C21.835876,1441.000000 12.670344,1440.913940 3.508682,1441.064087 
	C1.375431,1441.098999 0.562060,1440.678467 0.975326,1438.504395 
	C1.128168,1437.700317 1.000000,1436.842896 1.000000,1436.009766 
	C1.000000,959.308716 1.008541,482.607727 0.870585,5.906742 
	C0.869289,1.428960 2.085433,0.731986 6.094701,0.900587 
	C14.078441,1.236328 22.086237,1.000000 30.542048,1.000000 
z"/>
</svg>