<svg version="1.1" id="Layer_1" xmlns="http://www.w3.org/2000/svg" xmlns:xlink="http://www.w3.org/1999/xlink" x="0px" y="0px"
	 width="100%" viewBox="0 0 128 145" enable-background="new 0 0 128 145" xml:space="preserve">
<path fill="#FBFBFB" opacity="1.000000" stroke="none" 
	d="
M1.000000,58.000000 
	C1.000000,38.666668 1.000000,19.833334 1.000000,1.000000 
	C43.666668,1.000000 86.333336,1.000000 129.000000,1.000000 
	C129.000000,49.333332 129.000000,97.666664 129.000000,146.000000 
	C86.333336,146.000000 43.666668,146.000000 1.000000,146.000000 
	C1.000000,116.833336 1.000000,87.666664 1.000000,58.000000 
M107.985100,17.635033 
	C104.430870,16.159576 100.907684,13.504188 97.317116,13.409697 
	C80.344193,12.963028 63.352634,13.265359 46.368183,13.192577 
	C40.864361,13.168993 36.791149,15.207154 34.043472,20.105240 
	C33.374664,21.297480 31.803425,22.510965 30.484684,22.728090 
	C19.444981,24.545736 14.645617,30.042841 14.636492,41.405182 
	C14.617502,65.050636 14.621374,88.696144 14.651269,112.341591 
	C14.666015,124.004875 20.842422,130.333801 32.417656,130.396744 
	C47.570251,130.479141 62.723648,130.415298 77.876701,130.411011 
	C91.655182,130.407104 96.019638,126.899109 98.746086,113.647026 
	C108.283333,111.109352 110.627548,107.957901 110.628891,97.703125 
	C110.631920,74.557205 110.726578,51.410618 110.549072,28.266104 
	C110.523308,24.907457 109.203369,21.558737 107.985100,17.635033 
z"/>
<path fill="#181818" opacity="1.000000" stroke="none" 
	d="
M108.233704,17.920227 
	C109.203369,21.558737 110.523308,24.907457 110.549072,28.266104 
	C110.726578,51.410618 110.631920,74.557205 110.628891,97.703125 
	C110.627548,107.957901 108.283333,111.109352 98.746086,113.647026 
	C96.019638,126.899109 91.655182,130.407104 77.876701,130.411011 
	C62.723648,130.415298 47.570251,130.479141 32.417656,130.396744 
	C20.842422,130.333801 14.666015,124.004875 14.651269,112.341591 
	C14.621374,88.696144 14.617502,65.050636 14.636492,41.405182 
	C14.645617,30.042841 19.444981,24.545736 30.484684,22.728090 
	C31.803425,22.510965 33.374664,21.297480 34.043472,20.105240 
	C36.791149,15.207154 40.864361,13.168993 46.368183,13.192577 
	C63.352634,13.265359 80.344193,12.963028 97.317116,13.409697 
	C100.907684,13.504188 104.430870,16.159576 108.233704,17.920227 
M81.499405,107.166603 
	C86.495705,107.164513 91.492348,107.197990 96.488228,107.151283 
	C102.667976,107.093506 104.634453,105.216675 104.643112,99.173187 
	C104.677490,75.190872 104.678268,51.208454 104.648209,27.226128 
	C104.640770,21.293093 102.807579,19.388920 96.910042,19.362362 
	C80.255981,19.287363 63.601234,19.262423 46.947224,19.330896 
	C40.796856,19.356184 39.042854,21.260233 39.036755,27.561838 
	C39.013695,51.377613 39.018085,75.193459 39.056728,99.009209 
	C39.066910,105.284973 40.869293,107.100426 47.024345,107.128212 
	C58.182613,107.178589 69.341202,107.157745 81.499405,107.166603 
M20.830667,79.499954 
	C20.834415,90.987968 20.763960,102.476692 20.872355,113.963715 
	C20.928885,119.954468 24.425287,124.238029 30.149527,124.323402 
	C47.626095,124.584084 65.111481,124.582680 82.588188,124.325905 
	C88.695480,124.236176 91.955750,119.974594 91.735077,113.111649 
	C89.992050,113.111649 88.221123,113.111755 86.450188,113.111641 
	C73.297195,113.110794 60.144188,113.123871 46.991226,113.104393 
	C37.319477,113.090073 33.033817,108.805298 33.021751,99.075111 
	C32.995113,77.597488 33.009724,56.119812 33.007549,34.642159 
	C33.007366,32.858601 33.007523,31.075045 33.007523,29.335281 
	C25.130594,28.809465 20.932333,32.410965 20.873747,39.540714 
	C20.767046,52.526367 20.835358,65.513458 20.830667,79.499954 
z"/>
<path fill="#F6F5F6" opacity="1.000000" stroke="none" 
	d="
M80.999527,107.166611 
	C69.341202,107.157745 58.182613,107.178589 47.024345,107.128212 
	C40.869293,107.100426 39.066910,105.284973 39.056728,99.009209 
	C39.018085,75.193459 39.013695,51.377613 39.036755,27.561838 
	C39.042854,21.260233 40.796856,19.356184 46.947224,19.330896 
	C63.601234,19.262423 80.255981,19.287363 96.910042,19.362362 
	C102.807579,19.388920 104.640770,21.293093 104.648209,27.226128 
	C104.678268,51.208454 104.677490,75.190872 104.643112,99.173187 
	C104.634453,105.216675 102.667976,107.093506 96.488228,107.151283 
	C91.492348,107.197990 86.495705,107.164513 80.999527,107.166611 
M70.500267,43.721684 
	C77.311935,43.720062 84.132545,43.902267 90.928238,43.571953 
	C92.404312,43.500210 93.791069,41.590965 95.218964,40.528038 
	C93.760773,39.508579 92.318741,37.632103 90.841866,37.604275 
	C78.219795,37.366432 65.589645,37.364700 52.967194,37.589134 
	C51.429844,37.616467 49.923702,39.398842 48.403095,40.367855 
	C49.953423,41.463432 51.440922,43.380383 53.065544,43.504654 
	C58.517559,43.921684 64.018486,43.699268 70.500267,43.721684 
M83.461960,66.216125 
	C85.460999,66.215073 87.461227,66.257027 89.458778,66.201935 
	C91.880135,66.135155 95.172447,66.730064 94.900314,63.085106 
	C94.818771,61.992851 91.512352,60.350307 89.654396,60.310471 
	C77.832191,60.056999 66.001884,60.184441 54.174244,60.179127 
	C51.646641,60.177990 48.532784,59.933502 48.669132,63.368427 
	C48.709602,64.387985 52.096836,66.036491 53.988972,66.092255 
	C63.476120,66.371887 72.976028,66.218651 83.461960,66.216125 
M95.163170,86.363098 
	C95.138039,82.985123 92.764336,82.911812 90.323677,82.912735 
	C78.051254,82.917358 65.776779,82.808708 53.508801,83.042831 
	C51.805790,83.075340 50.134884,84.790253 48.449116,85.726311 
	C50.188026,86.780281 51.907055,88.707451 53.669048,88.747574 
	C65.769516,89.023071 77.879692,88.968567 89.984680,88.834236 
	C91.613396,88.816154 93.230530,87.755150 95.163170,86.363098 
z"/>
<path fill="#F2F2F2" opacity="1.000000" stroke="none" 
	d="
M20.830658,78.999954 
	C20.835358,65.513458 20.767046,52.526367 20.873747,39.540714 
	C20.932333,32.410965 25.130594,28.809465 33.007523,29.335281 
	C33.007523,31.075045 33.007366,32.858601 33.007549,34.642159 
	C33.009724,56.119812 32.995113,77.597488 33.021751,99.075111 
	C33.033817,108.805298 37.319477,113.090073 46.991226,113.104393 
	C60.144188,113.123871 73.297195,113.110794 86.450188,113.111641 
	C88.221123,113.111755 89.992050,113.111649 91.735077,113.111649 
	C91.955750,119.974594 88.695480,124.236176 82.588188,124.325905 
	C65.111481,124.582680 47.626095,124.584084 30.149527,124.323402 
	C24.425287,124.238029 20.928885,119.954468 20.872355,113.963715 
	C20.763960,102.476692 20.834415,90.987968 20.830658,78.999954 
z"/>
<path fill="#232323" opacity="1.000000" stroke="none" 
	d="
M70.000473,43.721649 
	C64.018486,43.699268 58.517559,43.921684 53.065544,43.504654 
	C51.440922,43.380383 49.953423,41.463432 48.403095,40.367855 
	C49.923702,39.398842 51.429844,37.616467 52.967194,37.589134 
	C65.589645,37.364700 78.219795,37.366432 90.841866,37.604275 
	C92.318741,37.632103 93.760773,39.508579 95.218964,40.528038 
	C93.791069,41.590965 92.404312,43.500210 90.928238,43.571953 
	C84.132545,43.902267 77.311935,43.720062 70.000473,43.721649 
z"/>
<path fill="#1B1B1B" opacity="1.000000" stroke="none" 
	d="
M82.966705,66.216827 
	C72.976028,66.218651 63.476120,66.371887 53.988972,66.092255 
	C52.096836,66.036491 48.709602,64.387985 48.669132,63.368427 
	C48.532784,59.933502 51.646641,60.177990 54.174244,60.179127 
	C66.001884,60.184441 77.832191,60.056999 89.654396,60.310471 
	C91.512352,60.350307 94.818771,61.992851 94.900314,63.085106 
	C95.172447,66.730064 91.880135,66.135155 89.458778,66.201935 
	C87.461227,66.257027 85.460999,66.215073 82.966705,66.216827 
z"/>
<path fill="#1A1A1A" opacity="1.000000" stroke="none" 
	d="
M95.008102,86.770088 
	C93.230530,87.755150 91.613396,88.816154 89.984680,88.834236 
	C77.879692,88.968567 65.769516,89.023071 53.669048,88.747574 
	C51.907055,88.707451 50.188026,86.780281 48.449112,85.726318 
	C50.134884,84.790253 51.805790,83.075340 53.508801,83.042831 
	C65.776779,82.808708 78.051254,82.917358 90.323677,82.912735 
	C92.764336,82.911812 95.138039,82.985123 95.008102,86.770088 
z"/>
</svg>