<svg version="1.1" id="Layer_1" xmlns="http://www.w3.org/2000/svg" xmlns:xlink="http://www.w3.org/1999/xlink" x="0px" y="0px"
	 width="100%" viewBox="0 0 1200 1200" enable-background="new 0 0 1200 1200" xml:space="preserve">
<path fill="#F7F6F2" opacity="1.000000" stroke="none" 
	d="
M792.000000,1201.000000 
	C528.000000,1201.000000 264.500000,1201.000000 1.000000,1201.000000 
	C1.000000,801.000000 1.000000,401.000000 1.000000,1.000000 
	C401.000000,1.000000 801.000000,1.000000 1201.000000,1.000000 
	C1201.000000,401.000000 1201.000000,801.000000 1201.000000,1201.000000 
	C1064.833374,1201.000000 928.666687,1201.000000 792.000000,1201.000000 
M701.909912,851.361633 
	C695.309326,869.068604 688.708679,886.775574 681.882080,905.088745 
	C681.062561,903.769287 680.681274,903.232056 680.376770,902.654297 
	C655.919861,856.250916 631.485718,809.835571 607.006165,763.444153 
	C600.480042,751.076416 594.265930,738.511597 587.081482,726.533325 
	C580.628601,715.774780 566.374695,712.910217 555.883606,719.242676 
	C545.144470,725.724854 541.025757,739.139465 546.529053,749.575256 
	C568.822083,791.848816 591.075378,834.143372 613.398193,876.401123 
	C622.808838,894.215881 631.847839,912.253784 641.966248,929.661011 
	C655.161072,952.360962 682.884521,959.835999 705.771423,947.575623 
	C717.663025,941.205322 724.567444,931.134460 729.018860,918.339111 
	C740.389709,885.654358 752.646790,853.277710 764.561646,820.782288 
	C797.213623,731.731018 829.869019,642.681030 862.528625,553.632507 
	C891.521423,474.581940 920.472656,395.516022 949.576904,316.506500 
	C953.467773,305.944061 955.390259,295.421356 952.942078,284.254486 
	C947.930420,261.394745 923.945007,244.367416 901.133179,249.071762 
	C888.537842,251.669220 876.378296,256.620972 864.218140,261.049225 
	C775.252258,293.447052 686.331543,325.968964 597.405518,358.476318 
	C528.013550,383.842834 458.627777,409.226105 389.252563,434.638306 
	C351.753296,448.374329 314.151917,461.846954 276.856018,476.116364 
	C259.759766,482.657379 249.925446,496.126892 248.137344,514.378113 
	C246.158417,534.577332 254.594330,550.290405 272.112152,560.245728 
	C291.790222,571.428711 311.999908,581.677185 331.991638,592.307190 
	C393.885925,625.217712 455.785187,658.118896 517.685913,691.017212 
	C529.295959,697.187561 539.111816,695.518921 548.455261,686.196045 
	C571.453796,663.248169 594.552063,640.400208 617.603088,617.504944 
	C627.652649,607.523315 637.782532,597.619995 647.698181,587.506836 
	C657.928162,577.072937 657.974487,562.462646 648.062988,552.713867 
	C638.543579,543.350708 624.522034,543.994690 614.173828,554.322998 
	C585.981995,582.460632 557.784912,610.593079 529.668152,638.805542 
	C527.277039,641.204834 525.620789,642.047607 522.153198,640.145447 
	C493.980957,624.691223 465.671906,609.485535 437.360474,594.286133 
	C398.044128,573.178772 358.682953,552.155029 319.357117,531.065186 
	C311.932831,527.083679 304.584137,522.961060 296.425812,518.477783 
	C499.997314,444.677704 702.632996,371.216919 906.218262,297.411865 
	C905.426575,299.994415 905.071045,301.395538 904.572327,302.743683 
	C899.202515,317.257996 893.791870,331.757202 888.426941,346.273315 
	C854.795959,437.271179 821.162354,528.268066 787.552002,619.273621 
	C759.072693,696.385986 730.623596,773.509521 701.909912,851.361633 
M340.953094,871.750977 
	C353.320465,875.793274 365.284485,873.595764 377.038055,869.235840 
	C385.245056,866.191589 385.854645,864.807617 386.026459,855.963806 
	C386.401062,836.680359 386.973602,817.400635 387.495941,798.120178 
	C387.616028,793.689209 385.591461,791.416016 380.804504,791.328369 
	C374.979187,791.221558 369.148682,791.447876 363.320770,791.426758 
	C348.422791,791.372742 347.398895,792.050659 344.921570,806.656738 
	C344.509613,809.085632 345.106415,812.844238 346.718170,814.126648 
	C348.281158,815.370239 352.009674,814.882141 354.331818,813.981079 
	C359.615784,811.930786 361.074066,812.447571 361.001526,818.134644 
	C360.869995,828.442810 360.510223,838.750366 360.080109,849.051270 
	C359.889343,853.619690 357.273773,855.287964 352.978302,853.743408 
	C347.727661,851.855347 345.312042,847.368896 343.953430,842.491211 
	C337.242950,818.398621 337.342468,794.217407 343.798401,770.094116 
	C344.553589,767.272217 346.097260,764.529175 347.800659,762.121155 
	C351.241119,757.257385 356.176697,755.255798 362.131836,755.729614 
	C367.582489,756.163330 368.185699,760.681519 369.633301,764.505859 
	C369.751190,764.817261 369.905029,765.115784 370.010559,765.430969 
	C371.248596,769.129761 373.839478,771.615784 377.678406,771.455444 
	C381.684875,771.288086 383.638763,768.128784 384.443817,764.461060 
	C385.404022,760.086548 386.294464,755.688965 386.988892,751.265808 
	C388.137848,743.947998 386.360138,740.587402 379.271515,738.474487 
	C356.268555,731.617798 332.275116,737.820984 321.177277,761.342712 
	C307.963470,789.349426 309.025421,818.525391 318.483887,847.454224 
	C322.054657,858.375610 328.900238,867.149841 340.953094,871.750977 
M441.892181,736.134705 
	C431.437408,737.191833 423.303375,742.542542 417.335999,750.752319 
	C413.770416,755.657776 410.666718,761.254822 408.846619,767.012390 
	C400.320099,793.984680 399.741058,821.346497 407.480042,848.544617 
	C410.956696,860.763184 418.228149,870.493225 431.891815,872.917847 
	C450.968475,876.302979 466.089539,867.659607 473.863037,849.580261 
	C479.270660,837.003418 481.485870,823.758362 482.332184,810.271912 
	C483.387360,793.457703 483.556946,776.641541 477.821564,760.423584 
	C471.662415,743.007385 461.086578,735.707458 441.892181,736.134705 
z"/>
<path fill="#F99A6A" opacity="1.000000" stroke="none" 
	d="
M702.035522,850.994873 
	C730.623596,773.509521 759.072693,696.385986 787.552002,619.273621 
	C821.162354,528.268066 854.795959,437.271179 888.426941,346.273315 
	C893.791870,331.757202 899.202515,317.257996 904.572327,302.743683 
	C905.071045,301.395538 905.426575,299.994415 906.218262,297.411865 
	C702.632996,371.216919 499.997314,444.677704 296.425812,518.477783 
	C304.584137,522.961060 311.932831,527.083679 319.357117,531.065186 
	C358.682953,552.155029 398.044128,573.178772 437.360474,594.286133 
	C465.671906,609.485535 493.980957,624.691223 522.153198,640.145447 
	C525.620789,642.047607 527.277039,641.204834 529.668152,638.805542 
	C557.784912,610.593079 585.981995,582.460632 614.173828,554.322998 
	C624.522034,543.994690 638.543579,543.350708 648.062988,552.713867 
	C657.974487,562.462646 657.928162,577.072937 647.698181,587.506836 
	C637.782532,597.619995 627.652649,607.523315 617.603088,617.504944 
	C594.552063,640.400208 571.453796,663.248169 548.455261,686.196045 
	C539.111816,695.518921 529.295959,697.187561 517.685913,691.017212 
	C455.785187,658.118896 393.885925,625.217712 331.991638,592.307190 
	C311.999908,581.677185 291.790222,571.428711 272.112152,560.245728 
	C254.594330,550.290405 246.158417,534.577332 248.137344,514.378113 
	C249.925446,496.126892 259.759766,482.657379 276.856018,476.116364 
	C314.151917,461.846954 351.753296,448.374329 389.252563,434.638306 
	C458.627777,409.226105 528.013550,383.842834 597.405518,358.476318 
	C686.331543,325.968964 775.252258,293.447052 864.218140,261.049225 
	C876.378296,256.620972 888.537842,251.669220 901.133179,249.071762 
	C923.945007,244.367416 947.930420,261.394745 952.942078,284.254486 
	C955.390259,295.421356 953.467773,305.944061 949.576904,316.506500 
	C920.472656,395.516022 891.521423,474.581940 862.528625,553.632507 
	C829.869019,642.681030 797.213623,731.731018 764.561646,820.782288 
	C752.646790,853.277710 740.389709,885.654358 729.018860,918.339111 
	C724.567444,931.134460 717.663025,941.205322 705.771423,947.575623 
	C682.884521,959.835999 655.161072,952.360962 641.966248,929.661011 
	C631.847839,912.253784 622.808838,894.215881 613.398193,876.401123 
	C591.075378,834.143372 568.822083,791.848816 546.529053,749.575256 
	C541.025757,739.139465 545.144470,725.724854 555.883606,719.242676 
	C566.374695,712.910217 580.628601,715.774780 587.081482,726.533325 
	C594.265930,738.511597 600.480042,751.076416 607.006165,763.444153 
	C631.485718,809.835571 655.919861,856.250916 680.376770,902.654297 
	C680.681274,903.232056 681.062561,903.769287 681.882080,905.088745 
	C688.708679,886.775574 695.309326,869.068604 702.035522,850.994873 
z"/>
<path fill="#F79F70" opacity="1.000000" stroke="none" 
	d="
M340.595673,871.591064 
	C328.900238,867.149841 322.054657,858.375610 318.483887,847.454224 
	C309.025421,818.525391 307.963470,789.349426 321.177277,761.342712 
	C332.275116,737.820984 356.268555,731.617798 379.271515,738.474487 
	C386.360138,740.587402 388.137848,743.947998 386.988892,751.265808 
	C386.294464,755.688965 385.404022,760.086548 384.443817,764.461060 
	C383.638763,768.128784 381.684875,771.288086 377.678406,771.455444 
	C373.839478,771.615784 371.248596,769.129761 370.010559,765.430969 
	C369.905029,765.115784 369.751190,764.817261 369.633301,764.505859 
	C368.185699,760.681519 367.582489,756.163330 362.131836,755.729614 
	C356.176697,755.255798 351.241119,757.257385 347.800659,762.121155 
	C346.097260,764.529175 344.553589,767.272217 343.798401,770.094116 
	C337.342468,794.217407 337.242950,818.398621 343.953430,842.491211 
	C345.312042,847.368896 347.727661,851.855347 352.978302,853.743408 
	C357.273773,855.287964 359.889343,853.619690 360.080109,849.051270 
	C360.510223,838.750366 360.869995,828.442810 361.001526,818.134644 
	C361.074066,812.447571 359.615784,811.930786 354.331818,813.981079 
	C352.009674,814.882141 348.281158,815.370239 346.718170,814.126648 
	C345.106415,812.844238 344.509613,809.085632 344.921570,806.656738 
	C347.398895,792.050659 348.422791,791.372742 363.320770,791.426758 
	C369.148682,791.447876 374.979187,791.221558 380.804504,791.328369 
	C385.591461,791.416016 387.616028,793.689209 387.495941,798.120178 
	C386.973602,817.400635 386.401062,836.680359 386.026459,855.963806 
	C385.854645,864.807617 385.245056,866.191589 377.038055,869.235840 
	C365.284485,873.595764 353.320465,875.793274 340.595673,871.591064 
M320.987701,775.582275 
	C315.128876,798.335938 315.143402,821.085754 322.264526,843.486084 
	C326.289917,856.148682 333.886810,866.101929 348.173157,868.394226 
	C357.960266,869.964661 367.322632,867.962402 376.436310,864.262390 
	C379.844116,862.878845 381.109253,860.937988 381.116516,857.134094 
	C381.149567,839.821960 381.553619,822.510559 381.808319,805.198730 
	C381.850769,802.314453 381.814301,799.429016 381.814301,796.237000 
	C373.842896,796.237000 366.543213,796.058228 359.261169,796.338379 
	C356.858643,796.430847 353.271454,797.013367 352.381195,798.589355 
	C350.553192,801.825500 350.180695,805.883789 348.936005,810.649048 
	C352.080780,809.428528 353.852142,808.598267 355.706329,808.045959 
	C364.242004,805.503784 365.812256,806.510498 365.809021,815.354614 
	C365.805145,826.000488 365.404663,836.646179 365.181946,847.292053 
	C365.085205,851.915894 364.810577,856.788269 359.711243,858.596313 
	C354.250763,860.532410 348.762939,859.256104 345.261475,854.601746 
	C342.230530,850.572754 339.504608,845.904785 338.152069,841.095154 
	C332.938354,822.554565 332.846283,803.571472 335.669983,784.690918 
	C336.857239,776.752563 339.344971,768.837891 342.424591,761.402466 
	C345.376434,754.275574 351.949097,750.683350 359.573547,750.288330 
	C366.619537,749.923340 371.506104,752.483398 374.365051,762.325378 
	C374.765778,763.704956 376.249786,764.769958 377.232330,765.980530 
	C378.113647,764.729248 379.466248,763.587830 379.788177,762.206299 
	C380.766052,758.009644 381.345306,753.720093 382.080231,749.466858 
	C382.673767,746.031860 381.040070,744.044617 377.861786,743.200500 
	C366.656219,740.224304 355.542267,739.699158 344.693634,744.688171 
	C331.676453,750.674377 325.313934,761.872253 320.987701,775.582275 
z"/>
<path fill="#F7A072" opacity="1.000000" stroke="none" 
	d="
M442.344177,736.110107 
	C461.086578,735.707458 471.662415,743.007385 477.821564,760.423584 
	C483.556946,776.641541 483.387360,793.457703 482.332184,810.271912 
	C481.485870,823.758362 479.270660,837.003418 473.863037,849.580261 
	C466.089539,867.659607 450.968475,876.302979 431.891815,872.917847 
	C418.228149,870.493225 410.956696,860.763184 407.480042,848.544617 
	C399.741058,821.346497 400.320099,793.984680 408.846619,767.012390 
	C410.666718,761.254822 413.770416,755.657776 417.335999,750.752319 
	C423.303375,742.542542 431.437408,737.191833 442.344177,736.110107 
M454.359467,865.038940 
	C458.886169,860.052368 464.306702,855.609436 467.742584,849.959534 
	C473.802673,839.994629 475.322327,828.425476 476.473419,816.958008 
	C478.224731,799.510803 478.727783,782.101868 473.987122,764.969604 
	C469.418854,748.460388 457.586212,739.282898 443.009125,741.156738 
	C429.652527,742.873657 421.180267,751.040405 415.935059,762.887329 
	C406.586456,784.002380 406.916107,806.314453 408.638672,828.632080 
	C409.182098,835.672546 410.964447,842.763550 413.198212,849.493408 
	C416.622162,859.809204 423.582184,867.436951 434.848724,868.325806 
	C441.023987,868.812988 447.421722,866.480713 454.359467,865.038940 
z"/>
<path fill="#C7E4E1" opacity="1.000000" stroke="none" 
	d="
M321.081482,775.191223 
	C325.313934,761.872253 331.676453,750.674377 344.693634,744.688171 
	C355.542267,739.699158 366.656219,740.224304 377.861786,743.200500 
	C381.040070,744.044617 382.673767,746.031860 382.080231,749.466858 
	C381.345306,753.720093 380.766052,758.009644 379.788177,762.206299 
	C379.466248,763.587830 378.113647,764.729248 377.232361,765.980530 
	C376.249786,764.769958 374.765778,763.704956 374.365051,762.325378 
	C371.506104,752.483398 366.619537,749.923340 359.573547,750.288330 
	C351.949097,750.683350 345.376434,754.275574 342.424591,761.402466 
	C339.344971,768.837891 336.857239,776.752563 335.669983,784.690918 
	C332.846283,803.571472 332.938354,822.554565 338.152069,841.095154 
	C339.504608,845.904785 342.230530,850.572754 345.261475,854.601746 
	C348.762939,859.256104 354.250763,860.532410 359.711243,858.596313 
	C364.810577,856.788269 365.085205,851.915894 365.181946,847.292053 
	C365.404663,836.646179 365.805145,826.000488 365.809021,815.354614 
	C365.812256,806.510498 364.242004,805.503784 355.706329,808.045959 
	C353.852142,808.598267 352.080780,809.428528 348.936005,810.649048 
	C350.180695,805.883789 350.553192,801.825500 352.381195,798.589355 
	C353.271454,797.013367 356.858643,796.430847 359.261169,796.338379 
	C366.543213,796.058228 373.842896,796.237000 381.814301,796.237000 
	C381.814301,799.429016 381.850769,802.314453 381.808319,805.198730 
	C381.553619,822.510559 381.149567,839.821960 381.116516,857.134094 
	C381.109253,860.937988 379.844116,862.878845 376.436310,864.262390 
	C367.322632,867.962402 357.960266,869.964661 348.173157,868.394226 
	C333.886810,866.101929 326.289917,856.148682 322.264526,843.486084 
	C315.143402,821.085754 315.128876,798.335938 321.081482,775.191223 
M341.407806,855.061646 
	C338.933990,850.029846 335.645630,845.229614 334.136932,839.923401 
	C329.337524,823.043457 329.350861,805.642334 331.457703,788.449707 
	C332.610870,779.039734 335.447174,769.599121 339.040985,760.791077 
	C342.714325,751.788025 350.693909,747.225952 360.550385,747.200195 
	C368.140411,747.180359 373.369080,751.203186 376.278015,758.223755 
	C376.347351,758.391113 376.834045,758.385437 377.475891,758.550354 
	C377.730286,757.096619 377.967865,755.684509 378.225494,754.276184 
	C379.458893,747.533508 378.615387,745.449768 371.961151,744.619995 
	C365.612946,743.828308 358.891815,743.572205 352.663300,744.778137 
	C338.988983,747.425781 330.651184,757.000610 326.152435,769.502258 
	C317.544250,793.423279 317.620575,817.801331 324.954224,841.997498 
	C328.828552,854.780273 336.766785,864.564575 351.110596,865.295227 
	C358.346863,865.663757 365.758698,863.305542 373.034454,861.889282 
	C376.926666,861.131592 377.933075,858.317749 377.887939,854.414246 
	C377.707214,838.781555 377.850403,823.145020 377.872437,807.509949 
	C377.876129,804.888123 377.872955,802.266296 377.872955,798.969910 
	C371.515228,798.969910 365.394592,799.194031 359.299591,798.895081 
	C354.862976,798.677490 353.334717,800.587280 353.573303,805.018372 
	C357.129639,804.653320 360.536316,804.286560 363.946777,803.959106 
	C366.622437,803.702209 368.124481,804.929260 368.111664,807.637634 
	C368.040802,822.595642 368.097900,837.557922 367.718597,852.508728 
	C367.603210,857.057007 364.592438,860.031738 360.002472,861.203979 
	C352.790100,863.046082 346.936646,860.694519 341.407806,855.061646 
z"/>
<path fill="#C7E4E1" opacity="1.000000" stroke="none" 
	d="
M454.039307,865.229370 
	C447.421722,866.480713 441.023987,868.812988 434.848724,868.325806 
	C423.582184,867.436951 416.622162,859.809204 413.198212,849.493408 
	C410.964447,842.763550 409.182098,835.672546 408.638672,828.632080 
	C406.916107,806.314453 406.586456,784.002380 415.935059,762.887329 
	C421.180267,751.040405 429.652527,742.873657 443.009125,741.156738 
	C457.586212,739.282898 469.418854,748.460388 473.987122,764.969604 
	C478.727783,782.101868 478.224731,799.510803 476.473419,816.958008 
	C475.322327,828.425476 473.802673,839.994629 467.742584,849.959534 
	C464.306702,855.609436 458.886169,860.052368 454.039307,865.229370 
M469.074982,761.596008 
	C465.343719,752.535156 459.987274,745.203491 449.360870,743.926392 
	C437.299194,742.476746 428.330383,747.626160 421.963501,757.569458 
	C419.915588,760.767761 418.195160,764.267395 416.893372,767.836487 
	C409.880096,787.064514 409.788757,807.041626 411.622314,827.006104 
	C412.356842,835.003540 414.158142,843.221680 417.210358,850.623230 
	C424.163361,867.484314 445.006714,871.285889 457.407288,857.928589 
	C462.001312,852.980103 465.368805,846.416016 467.783691,840.018066 
	C473.259033,825.512024 474.169769,810.047913 473.775269,794.778442 
	C473.495087,783.934998 470.880066,773.151794 469.074982,761.596008 
z"/>
<path fill="#F79D6E" opacity="1.000000" stroke="none" 
	d="
M341.659302,855.324463 
	C346.936646,860.694519 352.790100,863.046082 360.002472,861.203979 
	C364.592438,860.031738 367.603210,857.057007 367.718597,852.508728 
	C368.097900,837.557922 368.040802,822.595642 368.111664,807.637634 
	C368.124481,804.929260 366.622437,803.702209 363.946777,803.959106 
	C360.536316,804.286560 357.129639,804.653320 353.573303,805.018372 
	C353.334717,800.587280 354.862976,798.677490 359.299591,798.895081 
	C365.394592,799.194031 371.515228,798.969910 377.872955,798.969910 
	C377.872955,802.266296 377.876129,804.888123 377.872437,807.509949 
	C377.850403,823.145020 377.707214,838.781555 377.887939,854.414246 
	C377.933075,858.317749 376.926666,861.131592 373.034454,861.889282 
	C365.758698,863.305542 358.346863,865.663757 351.110596,865.295227 
	C336.766785,864.564575 328.828552,854.780273 324.954224,841.997498 
	C317.620575,817.801331 317.544250,793.423279 326.152435,769.502258 
	C330.651184,757.000610 338.988983,747.425781 352.663300,744.778137 
	C358.891815,743.572205 365.612946,743.828308 371.961151,744.619995 
	C378.615387,745.449768 379.458893,747.533508 378.225494,754.276184 
	C377.967865,755.684509 377.730286,757.096619 377.475891,758.550354 
	C376.834045,758.385437 376.347351,758.391113 376.278015,758.223755 
	C373.369080,751.203186 368.140411,747.180359 360.550385,747.200195 
	C350.693909,747.225952 342.714325,751.788025 339.040985,760.791077 
	C335.447174,769.599121 332.610870,779.039734 331.457703,788.449707 
	C329.350861,805.642334 329.337524,823.043457 334.136932,839.923401 
	C335.645630,845.229614 338.933990,850.029846 341.659302,855.324463 
M324.991241,813.333252 
	C324.991241,815.483337 324.991241,817.633423 324.991241,819.783508 
	C325.243927,819.772156 325.496582,819.760803 325.749268,819.749512 
	C325.749268,811.175842 325.749268,802.602112 325.749268,794.028442 
	C325.494080,794.026978 325.238922,794.025513 324.983734,794.023987 
	C324.983734,800.142273 324.983734,806.260620 324.991241,813.333252 
z"/>
<path fill="#F79D6E" opacity="1.000000" stroke="none" 
	d="
M469.191071,761.968872 
	C470.880066,773.151794 473.495087,783.934998 473.775269,794.778442 
	C474.169769,810.047913 473.259033,825.512024 467.783691,840.018066 
	C465.368805,846.416016 462.001312,852.980103 457.407288,857.928589 
	C445.006714,871.285889 424.163361,867.484314 417.210358,850.623230 
	C414.158142,843.221680 412.356842,835.003540 411.622314,827.006104 
	C409.788757,807.041626 409.880096,787.064514 416.893372,767.836487 
	C418.195160,764.267395 419.915588,760.767761 421.963501,757.569458 
	C428.330383,747.626160 437.299194,742.476746 449.360870,743.926392 
	C459.987274,745.203491 465.343719,752.535156 469.191071,761.968872 
M463.164185,805.497681 
	C463.131348,797.678101 463.728149,789.790833 462.896667,782.057129 
	C461.982208,773.551819 460.724121,764.841248 457.868347,756.844116 
	C453.670441,745.088501 440.512604,743.353271 433.019257,753.381531 
	C429.442383,758.168457 426.638672,764.046753 425.237305,769.853699 
	C420.077667,791.234070 419.943481,813.020935 422.407745,834.752441 
	C423.160645,841.392029 425.072479,848.197815 427.925720,854.231384 
	C432.143158,863.149719 443.992920,864.919312 450.549225,857.540527 
	C454.362457,853.249084 457.625793,847.523743 458.728851,841.965759 
	C461.042084,830.309692 461.764496,818.337830 463.164185,805.497681 
M417.001221,810.468323 
	C417.001221,806.213440 417.001221,801.958496 417.001221,797.703613 
	C416.573395,797.724487 416.145538,797.745300 415.717712,797.766174 
	C415.717712,805.267883 415.717712,812.769592 415.717712,820.271301 
	C416.145538,820.265564 416.573395,820.259827 417.001221,820.254089 
	C417.001221,817.315979 417.001221,814.377869 417.001221,810.468323 
z"/>
<path fill="#F8CBB3" opacity="1.000000" stroke="none" 
	d="
M324.987488,812.856079 
	C324.983734,806.260620 324.983734,800.142273 324.983734,794.023987 
	C325.238922,794.025513 325.494080,794.026978 325.749268,794.028442 
	C325.749268,802.602112 325.749268,811.175842 325.749268,819.749512 
	C325.496582,819.760803 325.243927,819.772156 324.991241,819.783508 
	C324.991241,817.633423 324.991241,815.483337 324.987488,812.856079 
z"/>
<path fill="#C7E4E1" opacity="1.000000" stroke="none" 
	d="
M463.152130,805.996704 
	C461.764496,818.337830 461.042084,830.309692 458.728851,841.965759 
	C457.625793,847.523743 454.362457,853.249084 450.549225,857.540527 
	C443.992920,864.919312 432.143158,863.149719 427.925720,854.231384 
	C425.072479,848.197815 423.160645,841.392029 422.407745,834.752441 
	C419.943481,813.020935 420.077667,791.234070 425.237305,769.853699 
	C426.638672,764.046753 429.442383,758.168457 433.019257,753.381531 
	C440.512604,743.353271 453.670441,745.088501 457.868347,756.844116 
	C460.724121,764.841248 461.982208,773.551819 462.896667,782.057129 
	C463.728149,789.790833 463.131348,797.678101 463.152130,805.996704 
M425.428528,793.997314 
	C425.317963,805.140686 424.575989,816.325806 425.308655,827.413452 
	C425.837402,835.414612 427.914093,843.402954 430.104309,851.170349 
	C431.348541,855.582764 434.776855,858.780029 439.937622,859.217224 
	C445.311279,859.672363 449.091766,857.023010 451.232361,852.573181 
	C453.586426,847.679504 455.679260,842.526123 456.928253,837.258789 
	C461.588348,817.605774 460.546417,797.572083 459.746979,777.652100 
	C459.485779,771.143921 457.769501,764.451477 455.450317,758.323364 
	C451.626556,748.219299 441.299103,747.169861 434.760284,755.839294 
	C433.085815,758.059326 431.394043,760.635010 430.858521,763.279724 
	C428.857147,773.163574 427.332458,783.143860 425.428528,793.997314 
z"/>
<path fill="#F8B28D" opacity="1.000000" stroke="none" 
	d="
M417.001221,810.954041 
	C417.001221,814.377869 417.001221,817.315979 417.001221,820.254089 
	C416.573395,820.259827 416.145538,820.265564 415.717712,820.271301 
	C415.717712,812.769592 415.717712,805.267883 415.717712,797.766174 
	C416.145538,797.745300 416.573395,797.724487 417.001221,797.703613 
	C417.001221,801.958496 417.001221,806.213440 417.001221,810.954041 
z"/>
<path fill="#F89F71" opacity="1.000000" stroke="none" 
	d="
M425.528748,793.542664 
	C427.332458,783.143860 428.857147,773.163574 430.858521,763.279724 
	C431.394043,760.635010 433.085815,758.059326 434.760284,755.839294 
	C441.299103,747.169861 451.626556,748.219299 455.450317,758.323364 
	C457.769501,764.451477 459.485779,771.143921 459.746979,777.652100 
	C460.546417,797.572083 461.588348,817.605774 456.928253,837.258789 
	C455.679260,842.526123 453.586426,847.679504 451.232361,852.573181 
	C449.091766,857.023010 445.311279,859.672363 439.937622,859.217224 
	C434.776855,858.780029 431.348541,855.582764 430.104309,851.170349 
	C427.914093,843.402954 425.837402,835.414612 425.308655,827.413452 
	C424.575989,816.325806 425.317963,805.140686 425.528748,793.542664 
M431.983734,841.256714 
	C432.934479,844.078369 433.550415,847.073303 434.903595,849.686584 
	C437.984741,855.636658 443.495636,856.100708 446.860260,850.367310 
	C449.250305,846.294617 450.826813,841.568176 451.906189,836.933228 
	C456.478394,817.300171 455.790710,797.321289 454.795532,777.415100 
	C454.502655,771.556274 452.966370,765.542480 450.836975,760.050659 
	C448.475342,753.960083 442.694489,753.575012 438.729187,758.785706 
	C437.051361,760.990479 435.377228,763.573914 434.855103,766.213440 
	C433.154205,774.812378 430.997192,783.497253 430.826080,792.184692 
	C430.509644,808.245911 431.476471,824.332458 431.983734,841.256714 
z"/>
<path fill="#F7F5F0" opacity="1.000000" stroke="none" 
	d="
M431.946228,840.832581 
	C431.476471,824.332458 430.509644,808.245911 430.826080,792.184692 
	C430.997192,783.497253 433.154205,774.812378 434.855103,766.213440 
	C435.377228,763.573914 437.051361,760.990479 438.729187,758.785706 
	C442.694489,753.575012 448.475342,753.960083 450.836975,760.050659 
	C452.966370,765.542480 454.502655,771.556274 454.795532,777.415100 
	C455.790710,797.321289 456.478394,817.300171 451.906189,836.933228 
	C450.826813,841.568176 449.250305,846.294617 446.860260,850.367310 
	C443.495636,856.100708 437.984741,855.636658 434.903595,849.686584 
	C433.550415,847.073303 432.934479,844.078369 431.946228,840.832581 
z"/>
</svg>