<svg version="1.1" id="Layer_1" xmlns="http://www.w3.org/2000/svg" xmlns:xlink="http://www.w3.org/1999/xlink" x="0px" y="0px"
	 width="100%" viewBox="0 0 816 816" enable-background="new 0 0 816 816" xml:space="preserve">
<path fill="#000000" opacity="1.000000" stroke="none" 
	d="
M293.009857,637.344849 
	C261.244690,639.130310 234.377930,616.971313 228.250381,587.655945 
	C227.262817,582.931274 226.728149,578.150085 226.729828,573.288940 
	C226.762177,478.970154 226.752869,384.651337 226.739944,290.332550 
	C226.739761,289.060089 226.582764,287.787628 226.448120,285.743439 
	C223.736725,288.202698 221.643448,290.264282 219.384796,292.125183 
	C190.338699,316.056274 146.079300,300.045227 137.763535,262.617584 
	C132.033157,236.826370 142.292068,212.368103 164.070404,200.077682 
	C171.311478,195.991241 179.194046,193.842133 187.467682,193.834808 
	C266.122284,193.765137 344.777191,193.700241 423.431580,193.848434 
	C455.730988,193.909286 482.525238,218.263428 485.296417,250.306534 
	C487.408478,274.728119 485.698212,299.258789 486.130310,323.736603 
	C486.182800,326.710175 486.137451,329.685486 486.137451,332.601990 
	C488.880188,333.347839 489.824432,331.358978 491.145203,330.317841 
	C508.210876,316.864929 526.702759,306.291229 548.124329,301.376343 
	C559.575256,298.749054 570.915039,299.246948 582.252136,301.840881 
	C607.675537,307.657745 631.785522,304.191437 654.846863,292.074463 
	C662.635010,287.982361 670.298523,283.459961 678.957642,281.261719 
	C689.170593,278.669006 696.776184,283.624573 698.687439,293.998230 
	C699.567810,298.776611 698.320679,303.300415 696.899353,307.705719 
	C691.809937,323.480164 682.789856,337.095184 672.688599,349.978851 
	C643.315552,387.442596 604.446472,409.739624 558.602417,420.670868 
	C555.058533,421.515900 551.383789,422.187378 547.758179,422.248993 
	C533.516357,422.491058 522.794373,429.353058 513.686340,439.599579 
	C506.951599,447.176147 501.666626,456.291382 492.951202,461.777100 
	C487.188904,465.404053 485.886719,469.697296 485.959503,476.103271 
	C486.296539,505.761566 486.103882,535.425842 486.104828,565.087952 
	C486.105042,571.644836 486.112335,571.665466 492.768005,571.667542 
	C520.263794,571.675964 547.759644,571.666016 575.255432,571.673828 
	C582.246399,571.675842 582.246338,571.694458 582.283936,578.469116 
	C582.450928,608.589417 563.490417,631.541626 533.929932,636.827026 
	C530.844849,637.378662 527.627747,637.326538 524.471802,637.327576 
	C447.483734,637.352112 370.495667,637.345825 293.009857,637.344849 
M440.912445,216.513962 
	C434.240479,213.419861 427.148438,212.925797 419.925354,212.928513 
	C358.603699,212.951569 297.282074,212.924759 235.960419,212.913010 
	C233.682602,212.912567 231.404770,212.912949 229.040207,212.912949 
	C229.172012,213.616257 229.125046,214.012573 229.301102,214.212845 
	C241.363647,227.934479 245.601776,243.941452 245.542664,262.117188 
	C245.207230,365.263214 245.376587,468.410828 245.390701,571.557922 
	C245.392273,583.049072 248.076340,593.784485 255.757324,602.618591 
	C265.064636,613.323181 276.572662,620.356384 291.222778,617.873718 
	C310.058777,614.681580 322.351349,599.243225 322.642334,580.130615 
	C322.780548,571.053284 321.459076,571.680054 331.385651,571.676025 
	C374.210846,571.658569 417.036072,571.673340 459.861267,571.672729 
	C466.891724,571.672607 466.922699,571.664429 466.926636,564.460632 
	C466.941772,536.965881 466.936249,509.471100 466.935944,481.976349 
	C466.935852,473.453369 466.858093,473.764069 458.900574,471.866180 
	C454.823853,470.893829 453.231750,472.095428 451.916626,475.714355 
	C447.929108,486.687317 444.737122,497.871368 442.295837,509.276703 
	C441.602692,512.515015 440.282410,515.279114 437.177704,516.845032 
	C433.737335,518.580322 430.397827,518.373657 427.305145,516.060181 
	C423.415619,513.150574 423.097595,509.071930 424.007599,504.781006 
	C427.296844,489.271027 431.927765,474.169464 438.273163,459.629852 
	C439.674805,456.418182 440.022339,453.421478 439.100677,449.978546 
	C436.345917,439.688080 436.310822,429.167053 438.020386,418.765076 
	C441.699036,396.381592 450.019989,375.867126 464.028534,357.861115 
	C465.963409,355.374084 466.966461,352.869995 466.958282,349.665894 
	C466.878998,318.672058 466.991882,287.677612 466.887909,256.683929 
	C466.825806,238.178925 457.901428,225.127365 440.912445,216.513962 
M653.666992,313.302277 
	C630.105713,324.219360 605.588318,325.639648 580.410767,320.752563 
	C573.241516,319.360992 566.154602,317.711853 558.662781,318.765625 
	C543.138245,320.949219 529.257629,327.125824 516.275574,335.529724 
	C493.406250,350.334106 474.995422,369.150635 464.326355,394.671417 
	C460.476288,403.880981 457.680939,413.409637 456.588684,424.431732 
	C459.976654,419.521393 462.670654,415.521881 465.459534,411.589661 
	C492.457367,373.523224 529.502686,352.375641 575.492310,346.339966 
	C580.260742,345.714142 584.071594,347.297089 586.164307,351.854614 
	C589.186829,358.436951 584.804077,364.220337 576.246582,365.299316 
	C555.617798,367.900177 536.570190,374.829132 518.885376,385.825562 
	C493.310120,401.728302 477.132507,425.499847 463.241699,451.267731 
	C462.967285,451.776703 463.069611,452.488708 462.999420,453.078674 
	C465.015961,454.067352 466.769135,453.549377 468.550812,453.112457 
	C476.070404,451.268372 482.327209,447.386627 487.436951,441.589417 
	C493.162476,435.093536 498.135590,427.931152 504.514130,422.018402 
	C512.909424,414.236115 521.972595,407.467743 533.537659,405.233337 
	C538.587280,404.257751 543.755493,403.906433 548.861511,403.210693 
	C564.886353,401.027161 579.786621,395.254730 594.294189,388.480560 
	C629.236023,372.164703 656.104553,347.162262 674.302185,313.054474 
	C676.098206,309.688141 678.191406,306.304657 678.325012,301.668488 
	C669.980103,305.624512 662.178284,309.323120 653.666992,313.302277 
M369.499939,618.689697 
	C421.309387,618.686096 473.118835,618.693726 524.928284,618.671814 
	C539.480347,618.665649 550.422180,612.118469 558.169617,599.992126 
	C559.855042,597.354065 561.235168,594.546936 561.415894,591.429382 
	C559.442017,589.727722 557.354126,590.353821 555.438721,590.352966 
	C486.970245,590.323303 418.501801,590.332092 350.033325,590.335754 
	C341.185547,590.336243 341.146851,590.324158 338.350128,598.814941 
	C336.053986,605.785889 332.207764,611.920959 327.115540,618.689270 
	C341.657379,618.689270 355.078644,618.689270 369.499939,618.689697 
M173.153900,216.602127 
	C160.211761,224.423721 154.646820,236.034378 155.206268,250.969421 
	C155.839050,267.862732 168.128174,282.352570 183.935181,284.552155 
	C199.122055,286.665466 213.534927,276.345886 219.017212,260.119446 
	C222.180038,250.758087 219.611191,243.505951 212.584091,237.335815 
	C205.429565,231.053787 196.841812,228.065933 187.502609,227.425079 
	C183.872910,227.176010 182.473923,225.993851 182.595459,222.346832 
	C182.686600,219.612228 183.279770,216.731247 181.900650,213.993484 
	C178.846130,213.742584 176.341080,215.049347 173.153900,216.602127 
z"/>
<path fill="#000000" opacity="1.000000" stroke="none" 
	d="
M314.000000,349.235229 
	C305.842621,349.224457 298.176239,349.441681 290.530334,349.139740 
	C282.467163,348.821289 278.268341,340.951141 282.496033,334.584076 
	C284.424683,331.679504 287.204773,330.610199 290.613647,330.612396 
	C336.558472,330.641968 382.503296,330.616669 428.448059,330.674957 
	C434.227692,330.682281 438.167236,334.599579 438.162506,339.849213 
	C438.158142,344.687958 434.179993,348.727203 428.860474,349.202911 
	C427.373077,349.335938 425.866150,349.262848 424.368164,349.262543 
	C387.745453,349.255127 351.122711,349.244781 314.000000,349.235229 
z"/>
<path fill="#000000" opacity="1.000000" stroke="none" 
	d="
M341.999939,289.281799 
	C324.855103,289.279419 308.209686,289.359955 291.565704,289.239349 
	C283.019379,289.177399 278.287140,281.873474 282.189362,275.111145 
	C284.273895,271.498810 287.588196,270.592041 291.525055,270.602936 
	C314.494751,270.666504 337.464752,270.634003 360.434631,270.638641 
	C382.572266,270.643158 404.709961,270.636383 426.847534,270.671112 
	C433.715637,270.681885 438.148865,274.342773 438.168030,279.869476 
	C438.187134,285.374695 433.653046,289.268555 426.889282,289.277771 
	C398.759552,289.316162 370.629761,289.286285 341.999939,289.281799 
z"/>
<path fill="#000000" opacity="1.000000" stroke="none" 
	d="
M341.589417,390.509979 
	C360.542999,389.611603 379.022858,390.893829 397.509338,390.660034 
	C402.425720,390.597870 405.110352,393.992401 405.877258,398.475494 
	C406.595459,402.673645 404.487915,405.877625 400.796936,407.917084 
	C399.181549,408.809692 397.384308,409.196625 395.506653,409.196014 
	C360.846375,409.184601 326.186035,409.197510 291.525848,409.140320 
	C289.905029,409.137634 288.190369,408.766174 286.683319,408.159332 
	C282.691650,406.551971 280.609985,403.336090 280.922882,399.140472 
	C281.248047,394.779449 283.658630,391.525085 288.191284,390.766357 
	C291.452209,390.220490 294.837769,390.029907 298.141602,390.197113 
	C312.466949,390.922119 326.795502,390.407227 341.589417,390.509979 
z"/>
<path fill="#000000" opacity="1.000000" stroke="none" 
	d="
M314.000000,469.166687 
	C306.339752,469.159119 299.178162,469.234070 292.019653,469.119049 
	C285.193115,469.009369 280.894775,465.249969 280.804291,459.564423 
	C280.719727,454.249420 284.848358,450.187531 291.556946,450.143005 
	C318.197815,449.966217 344.841309,449.962128 371.482086,450.146240 
	C378.249695,450.193024 382.175873,454.114594 382.202942,459.605164 
	C382.230133,465.124664 377.753601,469.093048 370.949341,469.127289 
	C352.133301,469.221985 333.316498,469.163849 314.000000,469.166687 
z"/>
<path fill="#000000" opacity="1.000000" stroke="none" 
	d="
M382.079407,520.659424 
	C380.437866,526.731873 376.471222,529.046448 370.829407,529.046570 
	C344.512909,529.046997 318.196320,529.102783 291.880035,529.028320 
	C285.174042,529.009338 280.761597,524.942322 280.808594,519.323608 
	C280.852997,514.014282 285.148285,510.053711 291.729340,510.027588 
	C318.211731,509.922638 344.695526,509.906464 371.177216,510.089905 
	C378.535248,510.140869 381.303894,513.094971 382.079407,520.659424 
z"/>
</svg>