<svg version="1.1" id="Layer_1" xmlns="http://www.w3.org/2000/svg" xmlns:xlink="http://www.w3.org/1999/xlink" x="0px" y="0px"
	 width="100%" viewBox="0 0 128 145" enable-background="new 0 0 128 145" xml:space="preserve">
<path fill="#FCFCFC" opacity="1.000000" stroke="none" 
	d="
M1.000000,62.000000 
	C1.000000,41.333332 1.000000,21.166666 1.000000,1.000000 
	C43.666668,1.000000 86.333336,1.000000 129.000000,1.000000 
	C129.000000,49.333332 129.000000,97.666664 129.000000,146.000000 
	C86.333336,146.000000 43.666668,146.000000 1.000000,146.000000 
	C1.000000,118.166664 1.000000,90.333336 1.000000,62.000000 
M37.787193,21.935736 
	C35.329102,22.136803 32.873882,22.458244 30.412392,22.516987 
	C22.107895,22.715172 17.394272,27.221836 17.363733,35.583279 
	C17.276133,59.566696 17.262321,83.550903 17.362846,107.534203 
	C17.396387,115.536438 22.172617,120.147362 30.198854,120.337044 
	C34.859844,120.447197 39.543072,120.135872 44.179134,120.494499 
	C45.763542,120.617058 47.883190,121.837997 48.641315,123.185516 
	C51.383595,128.059753 55.249146,130.355392 60.822933,130.313843 
	C73.646828,130.218246 86.471962,130.299194 99.296555,130.282211 
	C109.017303,130.269333 113.251427,126.043404 113.268471,116.243279 
	C113.299461,98.422096 113.270248,80.600815 113.268707,62.779572 
	C113.267715,51.340355 111.819817,49.277588 100.946548,45.661140 
	C100.946548,41.985012 101.053375,38.168568 100.922852,34.360264 
	C100.696709,27.761724 96.217194,23.092291 89.677773,22.570309 
	C87.690887,22.411711 85.603691,22.850121 83.710136,22.397366 
	C82.278008,22.054941 80.427399,21.014719 79.895256,19.792204 
	C77.895485,15.198012 74.517349,13.250186 69.701118,13.268991 
	C62.705975,13.296306 55.710190,13.239442 48.715622,13.310944 
	C42.654076,13.372908 40.237148,15.234889 37.787193,21.935736 
z"/>
<path fill="#181818" opacity="1.000000" stroke="none" 
	d="
M37.979332,21.552399 
	C40.237148,15.234889 42.654076,13.372908 48.715622,13.310944 
	C55.710190,13.239442 62.705975,13.296306 69.701118,13.268991 
	C74.517349,13.250186 77.895485,15.198012 79.895256,19.792204 
	C80.427399,21.014719 82.278008,22.054941 83.710136,22.397366 
	C85.603691,22.850121 87.690887,22.411711 89.677773,22.570309 
	C96.217194,23.092291 100.696709,27.761724 100.922852,34.360264 
	C101.053375,38.168568 100.946548,41.985012 100.946548,45.661140 
	C111.819817,49.277588 113.267715,51.340355 113.268707,62.779572 
	C113.270248,80.600815 113.299461,98.422096 113.268471,116.243279 
	C113.251427,126.043404 109.017303,130.269333 99.296555,130.282211 
	C86.471962,130.299194 73.646828,130.218246 60.822933,130.313843 
	C55.249146,130.355392 51.383595,128.059753 48.641315,123.185516 
	C47.883190,121.837997 45.763542,120.617058 44.179134,120.494499 
	C39.543072,120.135872 34.859844,120.447197 30.198854,120.337044 
	C22.172617,120.147362 17.396387,115.536438 17.362846,107.534203 
	C17.262321,83.550903 17.276133,59.566696 17.363733,35.583279 
	C17.394272,27.221836 22.107895,22.715172 30.412392,22.516987 
	C32.873882,22.458244 35.329102,22.136803 37.979332,21.552399 
M44.277042,36.177616 
	C42.822762,35.127129 40.515602,34.356945 40.062241,32.977497 
	C38.127769,27.091480 33.490700,28.551247 29.436495,28.670397 
	C25.725555,28.779459 23.561163,30.962000 23.554480,34.735302 
	C23.511147,59.198841 23.418959,83.664055 23.749256,108.123230 
	C23.776464,110.138069 26.644917,113.614487 28.494978,113.830788 
	C34.683422,114.554321 41.008965,114.105202 47.817791,114.105202 
	C47.817791,111.866234 47.817776,110.076057 47.817791,108.285873 
	C47.817959,92.309608 47.806408,76.333336 47.823071,60.357090 
	C47.831890,51.896297 50.629734,48.347004 59.731644,46.629631 
	C70.138031,46.656025 80.545113,46.744518 90.949928,46.629215 
	C92.232368,46.615002 93.502754,45.513477 94.910675,44.011860 
	C94.910378,41.389126 94.801720,38.760838 94.935753,36.144985 
	C95.125977,32.432285 93.660454,29.983671 89.387123,28.506456 
	C86.321892,29.017118 83.256660,29.527779 79.698395,30.538538 
	C78.003754,35.066757 74.513680,36.713432 69.929169,36.739075 
	C62.288044,36.781815 54.647305,36.893250 46.597790,36.579311 
	C46.039688,36.564930 45.481586,36.550549 44.277042,36.177616 
M53.814247,110.451828 
	C53.819073,112.116127 53.818909,113.780457 53.829594,115.444717 
	C53.875732,122.631668 55.492790,124.300331 62.614861,124.316811 
	C74.597847,124.344543 86.581062,124.353851 98.563942,124.308945 
	C105.580132,124.282654 107.230797,122.658051 107.236458,115.867378 
	C107.251877,97.393547 107.249489,78.919655 107.215988,60.445850 
	C107.204796,54.273460 105.319565,52.346699 99.229195,52.326187 
	C86.913445,52.284706 74.597359,52.294857 62.281551,52.331150 
	C55.605461,52.350822 53.847908,54.162529 53.834606,61.033466 
	C53.803352,77.177231 53.816238,93.321091 53.814247,110.451828 
M50.888405,19.449875 
	C50.390633,19.452374 49.888557,19.498837 49.395760,19.450546 
	C44.671284,18.987574 44.008324,21.720867 44.041462,25.632267 
	C44.074841,29.572115 45.736435,30.894354 49.495914,30.795099 
	C55.962616,30.624371 62.440899,30.604717 68.906601,30.790480 
	C72.813766,30.902735 74.216209,29.340872 74.126381,25.488855 
	C74.044586,21.981581 73.904564,19.205772 69.235962,19.370726 
	C63.435528,19.575670 57.622875,19.434647 50.888405,19.449875 
z"/>
<path fill="#F3F3F3" opacity="1.000000" stroke="none" 
	d="
M53.812752,109.958366 
	C53.816238,93.321091 53.803352,77.177231 53.834606,61.033466 
	C53.847908,54.162529 55.605461,52.350822 62.281551,52.331150 
	C74.597359,52.294857 86.913445,52.284706 99.229195,52.326187 
	C105.319565,52.346699 107.204796,54.273460 107.215988,60.445850 
	C107.249489,78.919655 107.251877,97.393547 107.236458,115.867378 
	C107.230797,122.658051 105.580132,124.282654 98.563942,124.308945 
	C86.581062,124.353851 74.597847,124.344543 62.614861,124.316811 
	C55.492790,124.300331 53.875732,122.631668 53.829594,115.444717 
	C53.818909,113.780457 53.819073,112.116127 53.812752,109.958366 
M89.372467,85.356583 
	C88.539238,85.356575 87.706001,85.356194 86.872772,85.356606 
	C79.873627,85.360107 72.868645,85.215935 65.880295,85.492340 
	C64.485840,85.547501 63.154938,87.209312 61.794731,88.130287 
	C62.681824,89.146065 63.551003,91.026840 64.458733,91.045639 
	C75.116348,91.266304 85.781067,91.282600 96.439362,91.094559 
	C97.395454,91.077682 99.074623,89.240417 99.048454,88.286125 
	C99.021812,87.314720 97.436775,85.853989 96.292587,85.565506 
	C94.406990,85.090096 92.326935,85.385941 89.372467,85.356583 
M79.502129,110.128670 
	C84.832954,110.127663 90.176262,110.323441 95.485764,109.986481 
	C96.803711,109.902840 98.012192,108.094452 99.270996,107.078865 
	C98.116394,106.115860 96.979248,104.342331 95.804443,104.317017 
	C85.647606,104.098259 75.481995,104.101303 65.325043,104.319641 
	C64.122154,104.345505 62.955616,106.062881 61.772224,106.996155 
	C63.018501,108.037956 64.194641,109.858437 65.523964,109.978172 
	C69.820564,110.365189 74.173470,110.127007 79.502129,110.128670 
M67.708847,66.659615 
	C65.354797,66.845924 62.001602,65.966545 62.106148,69.561699 
	C62.135490,70.570839 65.765869,72.228844 67.787735,72.296501 
	C76.727089,72.595650 85.685776,72.551094 94.628227,72.300758 
	C96.181320,72.257286 97.689896,70.623459 99.219032,69.724190 
	C97.653122,68.703522 96.115364,66.854645 94.516609,66.800301 
	C85.908569,66.507729 77.285393,66.660889 67.708847,66.659615 
z"/>
<path fill="#F8F8F8" opacity="1.000000" stroke="none" 
	d="
M90.006416,28.976086 
	C93.660454,29.983671 95.125977,32.432285 94.935753,36.144985 
	C94.801720,38.760838 94.910378,41.389126 94.390640,44.490639 
	C83.887123,45.034153 73.902817,45.049129 63.920918,45.211712 
	C62.220951,45.239403 60.531288,45.899574 58.836864,46.267544 
	C50.629734,48.347004 47.831890,51.896297 47.823071,60.357090 
	C47.806408,76.333336 47.817959,92.309608 47.817791,108.285873 
	C47.817776,110.076057 47.817791,111.866234 47.817791,114.105202 
	C41.008965,114.105202 34.683422,114.554321 28.494978,113.830788 
	C26.644917,113.614487 23.776464,110.138069 23.749256,108.123230 
	C23.418959,83.664055 23.511147,59.198841 23.554480,34.735302 
	C23.561163,30.962000 25.725555,28.779459 29.436495,28.670397 
	C33.490700,28.551247 38.127769,27.091480 40.062241,32.977497 
	C40.515602,34.356945 42.822762,35.127129 44.648422,36.621094 
	C45.682003,37.034973 46.344204,37.005367 47.006401,36.975761 
	C54.647305,36.893250 62.288044,36.781815 69.929169,36.739075 
	C74.513680,36.713432 78.003754,35.066757 80.379280,30.294159 
	C84.042252,29.691881 87.024330,29.333982 90.006416,28.976086 
z"/>
<path fill="#E9E8E9" opacity="1.000000" stroke="none" 
	d="
M51.351952,19.446461 
	C57.622875,19.434647 63.435528,19.575670 69.235962,19.370726 
	C73.904564,19.205772 74.044586,21.981581 74.126381,25.488855 
	C74.216209,29.340872 72.813766,30.902735 68.906601,30.790480 
	C62.440899,30.604717 55.962616,30.624371 49.495914,30.795099 
	C45.736435,30.894354 44.074841,29.572115 44.041462,25.632267 
	C44.008324,21.720867 44.671284,18.987574 49.395760,19.450546 
	C49.888557,19.498837 50.390633,19.452374 51.351952,19.446461 
z"/>
<path fill="#BCBCBC" opacity="1.000000" stroke="none" 
	d="
M59.284256,46.448586 
	C60.531288,45.899574 62.220951,45.239403 63.920918,45.211712 
	C73.902817,45.049129 83.887123,45.034153 94.324669,44.942612 
	C93.502754,45.513477 92.232368,46.615002 90.949928,46.629215 
	C80.545113,46.744518 70.138031,46.656025 59.284256,46.448586 
z"/>
<path fill="#DADADA" opacity="1.000000" stroke="none" 
	d="
M89.696770,28.741272 
	C87.024330,29.333982 84.042252,29.691881 80.625793,30.044109 
	C83.256660,29.527779 86.321892,29.017118 89.696770,28.741272 
z"/>
<path fill="#DADADA" opacity="1.000000" stroke="none" 
	d="
M46.802094,36.777538 
	C46.344204,37.005367 45.682003,37.034973 44.971645,36.800369 
	C45.481586,36.550549 46.039688,36.564930 46.802094,36.777538 
z"/>
<path fill="#1C1C1C" opacity="1.000000" stroke="none" 
	d="
M89.850655,85.356628 
	C92.326935,85.385941 94.406990,85.090096 96.292587,85.565506 
	C97.436775,85.853989 99.021812,87.314720 99.048454,88.286125 
	C99.074623,89.240417 97.395454,91.077682 96.439362,91.094559 
	C85.781067,91.282600 75.116348,91.266304 64.458733,91.045639 
	C63.551003,91.026840 62.681824,89.146065 61.794731,88.130295 
	C63.154938,87.209312 64.485840,85.547501 65.880295,85.492340 
	C72.868645,85.215935 79.873627,85.360107 86.872772,85.356606 
	C87.706001,85.356194 88.539238,85.356575 89.850655,85.356628 
z"/>
<path fill="#1A1A1A" opacity="1.000000" stroke="none" 
	d="
M79.003403,110.129196 
	C74.173470,110.127007 69.820564,110.365189 65.523964,109.978172 
	C64.194641,109.858437 63.018501,108.037956 61.772224,106.996155 
	C62.955616,106.062881 64.122154,104.345505 65.325043,104.319641 
	C75.481995,104.101303 85.647606,104.098259 95.804443,104.317017 
	C96.979248,104.342331 98.116394,106.115860 99.270996,107.078865 
	C98.012192,108.094452 96.803711,109.902840 95.485764,109.986481 
	C90.176262,110.323441 84.832954,110.127663 79.003403,110.129196 
z"/>
<path fill="#0A0A0A" opacity="1.000000" stroke="none" 
	d="
M68.188141,66.659927 
	C77.285393,66.660889 85.908569,66.507729 94.516609,66.800301 
	C96.115364,66.854645 97.653122,68.703522 99.219032,69.724190 
	C97.689896,70.623459 96.181320,72.257286 94.628227,72.300758 
	C85.685776,72.551094 76.727089,72.595650 67.787735,72.296501 
	C65.765869,72.228844 62.135490,70.570839 62.106148,69.561699 
	C62.001602,65.966545 65.354797,66.845924 68.188141,66.659927 
z"/>
</svg>